<?xml version="1.0" encoding="UTF-8"?>
<svg xmlns="http://www.w3.org/2000/svg" xmlns:xlink="http://www.w3.org/1999/xlink" viewBox="0 0 4782.37 3960.15">
  <defs>
    <style>
      .cls-1 {
        fill: #26264f;
      }

      .cls-2 {
        fill: url(#linear-gradient-2);
      }

      .cls-3, .cls-4, .cls-5, .cls-6 {
        fill: #fff;
      }

      .cls-7 {
        fill: url(#linear-gradient-17);
      }

      .cls-8 {
        fill: url(#linear-gradient-43);
      }

      .cls-9 {
        fill: url(#linear-gradient-15);
      }

      .cls-10 {
        fill: url(#linear-gradient-18);
      }

      .cls-11 {
        fill: url(#linear-gradient-40);
      }

      .cls-12 {
        fill: url(#linear-gradient-28);
      }

      .cls-13 {
        fill: url(#linear-gradient-14);
      }

      .cls-14 {
        fill: url(#linear-gradient-36);
      }

      .cls-15 {
        fill: url(#linear-gradient-20);
      }

      .cls-16 {
        fill: url(#linear-gradient-6);
      }

      .cls-17 {
        clip-path: url(#clippath-2);
      }

      .cls-18 {
        isolation: isolate;
      }

      .cls-19 {
        fill: url(#linear-gradient-35);
      }

      .cls-20 {
        fill: url(#linear-gradient-32);
      }

      .cls-21 {
        fill: url(#linear-gradient-11);
      }

      .cls-4, .cls-22 {
        mix-blend-mode: soft-light;
      }

      .cls-4, .cls-6 {
        opacity: .33;
      }

      .cls-23 {
        fill: url(#linear-gradient-39);
      }

      .cls-24 {
        clip-path: url(#clippath-1);
      }

      .cls-25 {
        clip-path: url(#clippath-4);
      }

      .cls-26 {
        fill: url(#linear-gradient-10);
      }

      .cls-22 {
        opacity: .5;
      }

      .cls-27 {
        fill: url(#linear-gradient-37);
      }

      .cls-5 {
        opacity: .61;
      }

      .cls-28 {
        fill: url(#linear-gradient-16);
      }

      .cls-29 {
        fill: url(#linear-gradient-31);
      }

      .cls-30 {
        fill: url(#linear-gradient-41);
      }

      .cls-31 {
        fill: #d8dee8;
      }

      .cls-32 {
        mix-blend-mode: multiply;
        opacity: .3;
      }

      .cls-33 {
        fill: url(#linear-gradient-21);
      }

      .cls-34 {
        fill: url(#linear-gradient-25);
      }

      .cls-35 {
        fill: url(#linear-gradient-5);
      }

      .cls-36 {
        fill: url(#linear-gradient-45);
      }

      .cls-37 {
        clip-path: url(#clippath);
      }

      .cls-38 {
        fill: #9b305e;
      }

      .cls-39 {
        fill: url(#linear-gradient-34);
      }

      .cls-40 {
        fill: none;
      }

      .cls-41 {
        fill: #beb8f2;
      }

      .cls-42 {
        clip-path: url(#clippath-3);
      }

      .cls-43 {
        fill: url(#linear-gradient-7);
      }

      .cls-44 {
        fill: url(#linear-gradient-24);
      }

      .cls-45 {
        fill: url(#linear-gradient-9);
      }

      .cls-46 {
        fill: url(#linear-gradient-22);
      }

      .cls-47 {
        fill: url(#linear-gradient-42);
      }

      .cls-48 {
        fill: url(#linear-gradient-3);
      }

      .cls-49 {
        clip-path: url(#clippath-5);
      }

      .cls-50 {
        fill: url(#linear-gradient);
      }

      .cls-51 {
        fill: url(#linear-gradient-27);
      }

      .cls-52 {
        fill: url(#linear-gradient-33);
      }

      .cls-53 {
        fill: url(#linear-gradient-38);
      }

      .cls-54 {
        fill: url(#linear-gradient-29);
      }

      .cls-55 {
        fill: url(#linear-gradient-30);
      }

      .cls-56 {
        fill: url(#linear-gradient-23);
      }

      .cls-57 {
        fill: url(#linear-gradient-19);
      }

      .cls-58 {
        fill: url(#linear-gradient-4);
      }

      .cls-59 {
        fill: url(#linear-gradient-8);
      }

      .cls-60 {
        fill: url(#linear-gradient-44);
      }

      .cls-61 {
        fill: #fcfdfe;
      }

      .cls-62 {
        fill: url(#linear-gradient-12);
      }

      .cls-63 {
        fill: url(#linear-gradient-13);
      }

      .cls-64 {
        fill: url(#linear-gradient-26);
      }
    </style>
    <clipPath id="clippath">
      <path class="cls-40" d="m2410.93,1330.98h185.2s34.86-95.01-10.52-162.05c-92.6-136.8,33.67-208.36,82.08-246.24,73-57.13,112.41-139.31,5.08-175.09-107.33-35.78.53-202.12,131.72-277.4,128.38-73.66,71.52-344.38-220.98-210.46-174.68,79.97-147.32,265.18-155.74,361.99-8.42,96.81-152.4,104.82-103.13,223.09,42.09,101.02,122.07,174.68,61.03,244.13-61.03,69.45-67.35,147.32,25.26,242.03Z"/>
    </clipPath>
    <linearGradient id="linear-gradient" x1="2738.68" y1="253.05" x2="2369.98" y2="1300.94" gradientUnits="userSpaceOnUse">
      <stop offset="0" stop-color="#aa80f9"/>
      <stop offset="1" stop-color="#6165d7"/>
    </linearGradient>
    <linearGradient id="linear-gradient-2" x1="2488.28" y1="1426.39" x2="1418.52" y2="-423.4" gradientUnits="userSpaceOnUse">
      <stop offset="0" stop-color="#ffc444"/>
      <stop offset="1" stop-color="#f36f56"/>
    </linearGradient>
    <clipPath id="clippath-1">
      <path class="cls-40" d="m2300.4,2025h271.37s108.23-229.37,14.54-297.22c-93.69-67.84-29.08-259.09-6.46-365.06,61.38-287.52-256.1-302.64-206.76-678.43,13.12-99.95,71.57-286.16-2.15-376.9-84-103.38-165.84-23.69-217.53-107.69-80.79-131.28-231.71-194.5-341.15-84.87-108.02,108.2-27.81,362.65,224.89,592.05,162.65,185.11,159.16,233.63,129.18,348.93-21,80.77-127.61,284.29-27.46,384.44,100.15,100.15,173.12,203.71,117.92,290.76-84,132.46,43.61,293.99,43.61,293.99Z"/>
    </clipPath>
    <linearGradient id="linear-gradient-3" x1="1574.91" y1="344.49" x2="2208.92" y2="1388.23" gradientUnits="userSpaceOnUse">
      <stop offset="0" stop-color="#e38ddd"/>
      <stop offset="1" stop-color="#9571f6"/>
    </linearGradient>
    <clipPath id="clippath-2">
      <path class="cls-40" d="m1965.57,1363.95h277.28c16.15-39.25,36.78-111.66-21.23-129.51-80.65-24.82-81.5-167.02-58.94-217.14,27.92-62.04,89.96-207.84-34.12-248.16-103.3-33.57-176.82-34.12-183.02-167.51-6.2-133.39-78.33-217.14-199.31-210.16-127.31,7.34-230.33-162.86-335.02-107.02-182.42,97.29-20.16,392.41,200.08,479.26,220.24,86.86,92.9,165.46,86.08,274.53-9.31,148.9,192.33,118.65,245.06,177.59,41.34,46.2,33.11,109.45,23.14,148.12Z"/>
    </clipPath>
    <linearGradient id="linear-gradient-4" x1="999.69" y1="2214.52" x2="2011.74" y2="2214.52" gradientUnits="userSpaceOnUse">
      <stop offset="0" stop-color="#ff9085"/>
      <stop offset="1" stop-color="#fb6fbb"/>
    </linearGradient>
    <clipPath id="clippath-3">
      <polygon class="cls-5" points="1077.91 3386.33 1077.91 1041.01 2011.74 984.37 2011.74 3444.66 1077.91 3386.33"/>
    </clipPath>
    <linearGradient id="linear-gradient-5" x1="3046.29" y1="1582.92" x2="4121.38" y2="4352.1" gradientTransform="translate(6584.38 4432.6) rotate(-180)" xlink:href="#linear-gradient-4"/>
    <clipPath id="clippath-4">
      <rect class="cls-6" x="2149.36" y="1673.15" width="2189.95" height="1084.64" transform="translate(5459.8 -1028.87) rotate(90)"/>
    </clipPath>
    <linearGradient id="linear-gradient-6" x1="1730.4" y1="2212.81" x2="3008.83" y2="2220.56" xlink:href="#linear-gradient-4"/>
    <clipPath id="clippath-5">
      <polygon class="cls-4" points="2011.74 3444.66 2011.74 984.37 2702.02 1121.98 2702.02 3310.62 2011.74 3444.66"/>
    </clipPath>
    <linearGradient id="linear-gradient-7" x1="1182.38" y1="3206.26" x2="1264.5" y2="1200.31" gradientUnits="userSpaceOnUse">
      <stop offset="0" stop-color="#ffc444"/>
      <stop offset="1" stop-color="#f36f56"/>
    </linearGradient>
    <linearGradient id="linear-gradient-8" x1="1274.11" y1="3049.21" x2="1349.16" y2="1215.78" xlink:href="#linear-gradient-7"/>
    <linearGradient id="linear-gradient-9" x1="1374.95" y1="3213.88" x2="1457.06" y2="1208.13" xlink:href="#linear-gradient-7"/>
    <linearGradient id="linear-gradient-10" x1="1942.44" y1="3207.53" x2="2022.55" y2="1250.4" xlink:href="#linear-gradient-7"/>
    <linearGradient id="linear-gradient-11" x1="2512.14" y1="3260.37" x2="2594.24" y2="1254.73" xlink:href="#linear-gradient-7"/>
    <linearGradient id="linear-gradient-12" x1="2887.77" y1="3234.58" x2="2966.99" y2="1299.39" xlink:href="#linear-gradient-7"/>
    <linearGradient id="linear-gradient-13" x1="3249.83" y1="3290.54" x2="3331.94" y2="1284.67" xlink:href="#linear-gradient-7"/>
    <linearGradient id="linear-gradient-14" x1="1235.38" y1="791.75" x2="1425.44" y2="1281.29" gradientUnits="userSpaceOnUse">
      <stop offset="0" stop-color="#aa80f9"/>
      <stop offset="1" stop-color="#6165d7"/>
    </linearGradient>
    <linearGradient id="linear-gradient-15" x1="1309.19" y1="1167.27" x2="1185.76" y2="1354.63" gradientTransform="translate(2286.36 -198.61) rotate(80.87)" xlink:href="#linear-gradient-14"/>
    <linearGradient id="linear-gradient-16" x1="1187.66" y1="809.65" x2="1267.91" y2="1082.76" xlink:href="#linear-gradient"/>
    <linearGradient id="linear-gradient-17" x1="1245.41" y1="785.98" x2="1389.79" y2="1277.3" xlink:href="#linear-gradient"/>
    <linearGradient id="linear-gradient-18" x1="1203.68" y1="804.94" x2="1283.94" y2="1078.05" xlink:href="#linear-gradient"/>
    <linearGradient id="linear-gradient-19" x1="1219.71" y1="800.23" x2="1299.97" y2="1073.34" xlink:href="#linear-gradient"/>
    <linearGradient id="linear-gradient-20" x1="1235.74" y1="795.52" x2="1315.99" y2="1068.63" xlink:href="#linear-gradient"/>
    <linearGradient id="linear-gradient-21" x1="1299.83" y1="776.69" x2="1380.09" y2="1049.8" xlink:href="#linear-gradient"/>
    <linearGradient id="linear-gradient-22" x1="1283.81" y1="781.4" x2="1364.06" y2="1054.51" xlink:href="#linear-gradient"/>
    <linearGradient id="linear-gradient-23" x1="1267.78" y1="786.1" x2="1348.04" y2="1059.22" xlink:href="#linear-gradient"/>
    <linearGradient id="linear-gradient-24" x1="1251.75" y1="790.81" x2="1332.01" y2="1063.93" xlink:href="#linear-gradient"/>
    <linearGradient id="linear-gradient-25" x1="1233.37" y1="796.22" x2="1313.63" y2="1069.33" xlink:href="#linear-gradient"/>
    <linearGradient id="linear-gradient-26" x1="1167.33" y1="818.17" x2="1357.38" y2="1307.71" xlink:href="#linear-gradient-14"/>
    <linearGradient id="linear-gradient-27" x1="2513.99" y1="1030.03" x2="3487.49" y2="1685.93" xlink:href="#linear-gradient-2"/>
    <linearGradient id="linear-gradient-28" x1="1699.87" y1="2238.36" x2="2673.37" y2="2894.27" xlink:href="#linear-gradient-2"/>
    <linearGradient id="linear-gradient-29" x1="3219.31" y1="1046.9" x2="4196.69" y2="3564.4" xlink:href="#linear-gradient-7"/>
    <linearGradient id="linear-gradient-30" x1="3598.89" y1="2978.03" x2="2964.11" y2="3941.55" xlink:href="#linear-gradient-7"/>
    <linearGradient id="linear-gradient-31" x1="3269.7" y1="1001.21" x2="3962.52" y2="3358.87" xlink:href="#linear-gradient"/>
    <linearGradient id="linear-gradient-32" x1="3172.07" y1="906.53" x2="3683.22" y2="2645.97" xlink:href="#linear-gradient"/>
    <linearGradient id="linear-gradient-33" x1="-248.95" y1="2073.28" x2="-182.39" y2="2226.48" gradientTransform="translate(2486.14) rotate(-180) scale(1 -1)" xlink:href="#linear-gradient-7"/>
    <linearGradient id="linear-gradient-34" x1="-78.73" y1="2183.34" x2="191.3" y2="2804.82" gradientTransform="translate(2486.14) rotate(-180) scale(1 -1)" xlink:href="#linear-gradient-14"/>
    <linearGradient id="linear-gradient-35" x1="2935.32" y1="2814.71" x2="3025" y2="2455.99" gradientTransform="translate(5095.22) rotate(-180) scale(1 -1)" xlink:href="#linear-gradient-14"/>
    <linearGradient id="linear-gradient-36" x1="2622.99" y1="3739.36" x2="2665.53" y2="3777.2" gradientTransform="translate(5195.07 310.21) rotate(-171.95) scale(1 -1)" gradientUnits="userSpaceOnUse">
      <stop offset="0" stop-color="#444b8c"/>
      <stop offset="1" stop-color="#26264f"/>
    </linearGradient>
    <linearGradient id="linear-gradient-37" x1="1738.7" y1="3777.26" x2="1738.7" y2="3703.15" gradientTransform="translate(4278.87 180.69) rotate(-171.95) scale(1 -1)" xlink:href="#linear-gradient-7"/>
    <linearGradient id="linear-gradient-38" x1="2627.26" y1="3734.56" x2="2669.8" y2="3772.4" xlink:href="#linear-gradient-36"/>
    <linearGradient id="linear-gradient-39" x1="2719.84" y1="3669.23" x2="2762.38" y2="3707.07" gradientTransform="translate(5095.22) rotate(-180) scale(1 -1)" xlink:href="#linear-gradient-36"/>
    <linearGradient id="linear-gradient-40" x1="1835.51" y1="3707.15" x2="1835.51" y2="3633.04" gradientTransform="translate(4169.91) rotate(-180) scale(1 -1)" xlink:href="#linear-gradient-7"/>
    <linearGradient id="linear-gradient-41" x1="989.52" y1="3741.14" x2="712.1" y2="2621.08" gradientTransform="translate(1348.38)" xlink:href="#linear-gradient-36"/>
    <linearGradient id="linear-gradient-42" x1="-1.03" y1="2118.39" x2="296.41" y2="2802.96" gradientTransform="translate(2486.14) rotate(-180) scale(1 -1)" xlink:href="#linear-gradient-14"/>
    <linearGradient id="linear-gradient-43" x1="2724.12" y1="3664.42" x2="2766.66" y2="3702.27" gradientTransform="translate(5095.22) rotate(-180) scale(1 -1)" xlink:href="#linear-gradient-36"/>
    <linearGradient id="linear-gradient-44" x1="3683.05" y1="2539.51" x2="3903.42" y2="2816.76" gradientTransform="translate(5197.95 -1112.3) rotate(165.07) scale(1 -1)" xlink:href="#linear-gradient-7"/>
    <linearGradient id="linear-gradient-45" x1="3697.97" y1="2525.49" x2="3928.34" y2="2815.33" gradientTransform="translate(5197.95 -1112.3) rotate(165.07) scale(1 -1)" xlink:href="#linear-gradient-7"/>
  </defs>
  <g class="cls-18">
    <g id="Illustration">
      <g id="Order_shipped" data-name="Order shipped">
        <g class="cls-37">
          <path class="cls-50" d="m2410.93,1330.98h185.2s34.86-95.01-10.52-162.05c-92.6-136.8,33.67-208.36,82.08-246.24,73-57.13,105.17-130.95,17.38-178.83-99.33-54.18-11.78-198.38,119.42-273.66,128.38-73.66,71.52-344.38-220.98-210.46-174.68,79.97-147.32,265.18-155.74,361.99-8.42,96.81-152.4,104.82-103.13,223.09,42.09,101.02,122.07,174.68,61.03,244.13-61.03,69.45-67.35,147.32,25.26,242.03Z"/>
          <g>
            <path class="cls-41" d="m2490.63,1348.25c-.44-2.39-43.4-241.59-14.49-491.61,17-146.99,55.14-268.94,113.37-362.46,72.92-117.11,177.67-189.71,311.33-215.77l.93,4.75c-132.27,25.79-235.94,97.63-308.12,213.53-57.85,92.9-95.77,214.15-112.69,360.41-28.84,249.31,14,487.9,14.44,490.28l-4.76.87Z"/>
            <path class="cls-41" d="m2561.11,544.69c-16.18-129.99,33.24-314.26,33.74-316.1l4.67,1.26c-.5,1.84-49.67,185.21-33.61,314.23l-4.8.6Z"/>
            <path class="cls-41" d="m2612.49,468.39l-2.56-4.1c133.41-83.13,258.26-43.11,259.5-42.69l-1.52,4.59c-1.22-.41-124.01-39.67-255.42,42.2Z"/>
            <path class="cls-41" d="m2470.96,1021.23l-4.71-1.11c44.19-186.35,298.59-233.14,301.05-233.14l.16,4.83c-2.48.25-253.21,46.89-296.5,229.43Z"/>
            <path class="cls-41" d="m2468.85,943.11c-24.23-116.5-151.06-196.99-152.34-197.79l2.56-4.1c1.3.81,129.85,82.36,154.5,200.91l-4.73.98Z"/>
            <path class="cls-41" d="m2489.47,1309.8l-4.82-.37c3.05-38.86,33.25-72.89,58.05-94.6,26.7-23.37,53.06-37.88,53.32-38.02l2.32,4.24c-1.03.57-103.25,57.26-108.87,128.76Z"/>
            <path class="cls-41" d="m2477.65,1253.46c-9.28-54.35-93-116.05-120.51-136.33-5.75-4.25-7.78-5.75-8.53-6.59l3.61-3.21-1.81,1.61,1.8-1.62c.55.58,3.91,3.05,7.79,5.92,27.9,20.56,112.8,83.13,122.41,139.41l-4.77.81Z"/>
          </g>
        </g>
        <g>
          <g>
            <path class="cls-2" d="m2256.79,1731.01c-48.29,76.15-23.23,162.02,3.91,221.17,8.19,1.13,12.64,4.04,20.66,7.14,72.31,28.06,149.95,42.17,225.17,57.72,16.19,3.35,32.08,4.12,48.51,6.24l16.75,1.71s108.23-229.37,14.54-297.22c-93.69-67.84-29.08-259.09-6.46-365.06,61.38-287.52-256.1-302.64-206.76-678.43,13.12-99.95,71.57-286.16-2.15-376.9-84-103.38-165.84-23.69-217.53-107.69-80.79-131.28-231.71-194.51-341.15-84.87-108.02,108.2-27.81,362.65,224.89,592.05,162.65,185.11,159.16,233.63,129.18,348.93-21,80.77-127.61,284.29-27.46,384.44,100.15,100.15,173.12,203.71,117.92,290.76Z"/>
            <g class="cls-24">
              <g>
                <path class="cls-61" d="m2430.44,1996.18l-4.86-.03c.25-33.59.09-67.42-.48-100.55-4.22-245.6-31.22-481.91-80.24-702.39-41.53-186.75-99.4-364.76-172.02-529.1-58.39-132.12-126.57-256.14-202.67-368.63-53.47-79.04-110.26-151.61-168.8-215.7-10.13-11.09-21.17-21.92-31.83-32.39-14.38-14.11-29.25-28.71-42.27-44.28l3.73-3.12c12.87,15.39,27.65,29.9,41.95,43.93,10.72,10.52,21.8,21.39,32.02,32.58,58.7,64.26,115.64,137.01,169.24,216.25,76.26,112.73,144.58,237.01,203.09,369.39,72.75,164.62,130.73,342.94,172.32,530,49.09,220.79,76.13,457.43,80.36,703.35.57,33.16.73,67.03.48,100.67Z"/>
                <path class="cls-61" d="m2253.08,868.1c-73.7-232.33,69.43-623.32,70.89-627.24l4.55,1.69c-1.45,3.91-144.01,393.35-70.82,624.08l-4.63,1.47Z"/>
                <path class="cls-61" d="m2401.19,1531.18c-30.93-160.2-304.38-317.69-307.13-319.26l2.4-4.22c2.78,1.58,278.15,160.19,309.5,322.55l-4.77.92Z"/>
                <path class="cls-61" d="m2411.02,1625c-1.41-109.08,54.71-258.2,158.02-419.91,2.37-3.71,4.24-6.64,4.51-7.2l1.83.88h2.85q0,.95-5.1,8.93c-102.81,160.92-158.66,309.1-157.26,417.24l-4.86.06Z"/>
                <path class="cls-61" d="m2425.15,1934.73c-34.79-111.21-196.69-174.97-198.32-175.6l1.75-4.53c1.65.64,165.73,65.27,201.2,178.69l-4.63,1.45Z"/>
                <path class="cls-61" d="m2433.22,1997.56l-4.55-1.69c33.63-90.81,94.35-174.87,185.64-256.97l3.25,3.61c-90.68,81.56-150.98,164.98-184.33,255.04Z"/>
                <path class="cls-61" d="m2014.04,362.7c-48.02-126.49-69.13-270.31-76.06-317.57-1.22-8.31-2.18-14.87-2.51-15.88l4.61-1.53c.45,1.34,1.11,5.81,2.71,16.71,6.91,47.13,27.96,190.56,75.8,316.55l-4.54,1.72Z"/>
                <path class="cls-61" d="m2122.02,555.88c-76.3-97.95-332.99-128.94-335.57-129.24l.56-4.82c.65.08,65.88,7.82,139.78,27.69,99.49,26.75,166.47,61.54,199.07,103.38l-3.83,2.99Z"/>
              </g>
            </g>
          </g>
          <g>
            <path class="cls-48" d="m1972.09,1281.9c1.08.47,2.13.99,3.23,1.41,77.55,29.91,159.86,44.96,240.06,61.53,10.8,2.23,21.68,4.1,32.59,5.76,14.48-40.5,25.58-100.19-26.36-116.17-80.65-24.82-81.5-167.02-58.94-217.14,27.92-62.04,89.96-207.84-34.12-248.16-103.3-33.57-176.82-34.12-183.02-167.51-6.2-133.39-78.33-217.14-199.31-210.16-127.31,7.34-230.33-162.86-335.02-107.02-182.42,97.29-20.16,392.41,200.08,479.26,220.24,86.86,92.9,165.46,86.08,274.53-9.31,148.9,192.33,118.65,245.06,177.59,17.86,19.96,26.44,43.11,29.65,66.08Z"/>
            <g class="cls-17">
              <g>
                <path class="cls-61" d="m2096.69,1320.22c-41.48-210.68-133.77-415.26-266.91-591.62-133.89-177.35-305.55-321.34-496.43-416.4l2.16-4.35c191.55,95.39,363.8,239.87,498.14,417.82,133.58,176.94,226.18,382.21,267.8,593.61l-4.76.94Z"/>
                <path class="cls-61" d="m2035.17,1089.33l-4.86-.02c.77-175.1,150.95-310.57,152.46-311.92l3.23,3.63c-1.5,1.33-150.07,135.41-150.83,308.3Z"/>
                <path class="cls-61" d="m2078.87,1241.2c-81.02-151.77-395.94-174.74-399.11-174.96l.33-4.84c3.2.21,320.79,23.39,403.07,177.51l-4.28,2.29Z"/>
                <path class="cls-61" d="m1818.52,714.2c-55.61-129.75,29.31-327.54,30.17-329.53l4.45,1.94c-.86,1.96-84.94,197.86-30.16,325.67l-4.46,1.92Z"/>
                <path class="cls-61" d="m1627.53,510.37c-132.54-82.26-339.36-37.9-341.43-37.44l-1.05-4.74c2.1-.47,210.82-45.26,345.04,38.05l-2.56,4.13Z"/>
              </g>
            </g>
          </g>
          <path class="cls-31" d="m2427.84,1577.06s1.58,7.76,1.58,7.76c-134.44-.94-297.15-65.73-298.72-66.38-1.17-.48,1.6-8.85,2.08-10.02.48-1.17,1.82-1.74,2.98-1.25,1.57.64,158.56,64.38,292.1,65.32,1.27,0,2.28,1.04,2.27,2.3,0,1.26-1.03,2.27-2.29,2.27Z"/>
        </g>
        <g>
          <g>
            <polygon class="cls-58" points="2011.74 3568.14 999.69 3498.66 999.69 928.53 2011.74 860.89 2011.74 3568.14"/>
            <g>
              <polygon class="cls-5" points="1077.91 3386.33 1077.91 1041.01 2011.74 984.37 2011.74 3444.66 1077.91 3386.33"/>
              <g class="cls-42">
                <path class="cls-3" d="m4782.37,1593.46l-1004.23,26.61c-3.35-497.62-6.1-1208.65-.66-1274.64-.28,3.36-2.15,21.12-11.79,41.18l-133.05-103.86c-14.26,29.92-14.7,54.93-15.85,121.79-.66,37.94-1.11,92.39-1.36,161.85-.41,116.25-.26,276.68.47,476.87,1.23,340.57,3.71,683.1,3.73,686.52l.76,103.49,344.51-5.79v745.47l-649.72-11.15-388.18-701.03-533.23,8.57,716.19-1169.88-113.28-124.9-787.34,1297.73-338.8,5.44c.48-117.7,1.26-326.93,1.72-535.29.41-184.04.5-331.39.27-437.93-.47-212.47-1.34-214.9-6.14-228.37l-63.29,50.39c-2.53-7.11-3.08-13.13-3.17-14.27,3.32,44.21,1.83,689.49-.14,1166.6l-353.8,5.68c-64.25-343.01-214.48-1144.49-219.54-1166.64l-117.84,67.48-.29-1.32c6.42,30.99,139.2,743.6,227.89,1220.43l12.77,68.63,741.36-4.73-460.58,759.16-903.92-29.11v181l963.59,40.36,583.16-952.57,580.59-3.7,271.66,494.98-717.75-12.32v1406.06l75.18,6.48v-1305.92l702.92,15.69,708.88,1291.64,130.5-117.2-647.95-1170.16,675.41,15.07v-861.84l730.33-12.28v-220.27Z"/>
              </g>
            </g>
          </g>
          <g>
            <rect class="cls-35" x="2702.02" y="1012.14" width="1180.34" height="2408.32" transform="translate(6584.38 4432.6) rotate(180)"/>
            <g>
              <rect class="cls-6" x="2149.36" y="1673.15" width="2189.95" height="1084.64" transform="translate(5459.8 -1028.87) rotate(90)"/>
              <g class="cls-25">
                <path class="cls-3" d="m4215.8,1728.01h-897.19c-3.13-407.1-5.71-988.87-.62-1042.47-.26,2.73-2.01,17.13-11.03,32.88l-125.26-94.63c-13.52,23.61-13.93,44.19-15.03,99.19-.62,31.21-1.06,76.05-1.29,133.27-.39,95.76-.25,227.97.44,392.95,1.17,280.65,3.52,562.92,3.54,565.74l.72,85.27h321.59v604.47h-615.19l-385.81-591h-553.95l737.56-977.37-113.3-112.77-822.67,1090.14h-374.1c.53-105.5,1.41-293.04,1.94-479.79.46-164.95.56-297.02.3-392.54-.53-190.48-1.5-192.72-6.9-205.12l-71.34,40.96c-2.86-6.57-3.48-12.02-3.58-13.05,3.75,39.99,2.07,620.37-.16,1049.54h-407.47c-75.6-316.21-254.33-1063.32-260.39-1084.2l-142.24,54.45-.35-1.25c7.79,29.33,167.84,697.75,273.52,1139.88l15.13,63.3h845.68l-517.86,686.24H0v172.19h1158.98l647.81-858.43h608.91l273.4,418.81h-738.16v1227.27h79.75v-1135.68h718.2l677.52,1037.86,119.97-103.29-610.09-934.57h635.15v-696.06h644.37v-172.19Z"/>
              </g>
            </g>
          </g>
          <g>
            <polygon class="cls-16" points="2702.02 3420.46 2011.74 3568.14 2011.74 860.89 2702.02 1012.14 2702.02 3420.46"/>
            <g>
              <polygon class="cls-4" points="2011.74 3444.66 2011.74 984.37 2702.02 1121.98 2702.02 3310.62 2011.74 3444.66"/>
              <g class="cls-49">
                <path class="cls-31" d="m3391.86,1791.35l-386.56-34.86c-1.45-384.9-2.66-935.09-.29-985.11-.12,2.54-.93,15.93-5.13,29.67l-59.03-106.55c-6.45,20.74-6.65,40.4-7.17,92.93-.3,29.82-.5,72.71-.62,127.49-.19,91.68-.12,218.34.21,376.44.56,268.89,1.68,539.31,1.69,542.01l.34,81.67,149.26,8.84v562.55l-293.25,14.48-201.47-592.61-316.67-17.99,414.38-955.78-59.89-128.14-476.68,1076.97-244.5-13.89c.36-120.49.96-334.65,1.32-547.91.32-188.34.38-339.16.2-448.28-.36-217.64-1.02-220.35-4.69-235.44l-48.91,34.93c-1.97-8.05-2.41-14.44-2.47-15.64,2.59,46.69,1.43,714.96-.11,1209.24l-294.7-16.74c-57.68-387.64-198.08-1330.57-202.95-1357.69l-116.14,39.52-.29-1.64c6.46,38.56,136.65,896.88,219.99,1447.34l11.77,77.73,598.72,15.49-353.4,798.43-894.02,87.12v230.3l943.04-121.08,429.87-991.52,355.25,9.19,146.33,422.85-413.54,20.42v1319.22l47.62-12.85v-1211.05l396.93-26.14,328.66,949.76,54.17-109.34-287.85-846.68,299.03-19.69v-643.32l271.56,16.09v-150.74Z"/>
              </g>
            </g>
          </g>
          <g>
            <path class="cls-43" d="m1267.21,1275.08c-7.32,0-13.85-5.18-15.3-12.63l-8.51-43.77c-1.65-8.46,3.88-16.65,12.34-18.3,8.44-1.66,16.65,3.88,18.3,12.34l8.51,43.77c1.65,8.46-3.88,16.65-12.34,18.3-1.01.2-2.01.29-3,.29Z"/>
            <path class="cls-59" d="m1380.7,1858.81c-7.32,0-13.85-5.18-15.3-12.63l-18.92-97.29c-1.65-8.46,3.88-16.65,12.34-18.3,8.44-1.66,16.65,3.88,18.3,12.34l18.92,97.29c1.65,8.46-3.88,16.65-12.34,18.3-1.01.2-2.01.29-3,.29Zm-37.83-194.58c-7.32,0-13.85-5.18-15.3-12.63l-18.91-97.29c-1.65-8.46,3.88-16.65,12.34-18.3,8.44-1.65,16.65,3.88,18.3,12.34l18.91,97.29c1.65,8.46-3.88,16.65-12.34,18.3-1.01.2-2.01.29-3,.29Zm-37.83-194.58c-7.32,0-13.85-5.18-15.3-12.63l-18.92-97.29c-1.65-8.46,3.88-16.65,12.34-18.3,8.45-1.66,16.65,3.88,18.3,12.34l18.92,97.29c1.65,8.46-3.88,16.65-12.34,18.3-1.01.2-2.01.29-3,.29Z"/>
            <path class="cls-45" d="m1452.73,1999.87h-44.59c-7.47,0-13.89-5.3-15.32-12.63l-8.51-43.77c-1.65-8.46,3.88-16.65,12.34-18.3,8.44-1.65,16.65,3.88,18.3,12.34l6.06,31.14h31.72c8.62,0,15.61,6.99,15.61,15.61s-6.99,15.61-15.61,15.61Z"/>
            <path class="cls-26" d="m2449.25,1999.87h-83.04c-8.62,0-15.61-6.99-15.61-15.61s6.99-15.61,15.61-15.61h83.04c8.62,0,15.61,6.99,15.61,15.61s-6.99,15.61-15.61,15.61Zm-166.08,0h-83.04c-8.62,0-15.61-6.99-15.61-15.61s6.99-15.61,15.61-15.61h83.04c8.62,0,15.61,6.99,15.61,15.61s-6.99,15.61-15.61,15.61Zm-166.09,0h-83.04c-8.62,0-15.61-6.99-15.61-15.61s6.99-15.61,15.61-15.61h83.04c8.62,0,15.61,6.99,15.61,15.61s-6.99,15.61-15.61,15.61Zm-166.09,0h-83.04c-8.62,0-15.61-6.99-15.61-15.61s6.99-15.61,15.61-15.61h83.04c8.62,0,15.61,6.99,15.61,15.61s-6.99,15.61-15.61,15.61Zm-166.09,0h-83.04c-8.62,0-15.61-6.99-15.61-15.61s6.99-15.61,15.61-15.61h83.04c8.62,0,15.61,6.99,15.61,15.61s-6.99,15.61-15.61,15.61Zm-166.08,0h-83.04c-8.62,0-15.61-6.99-15.61-15.61s6.99-15.61,15.61-15.61h83.04c8.62,0,15.61,6.99,15.61,15.61s-6.99,15.61-15.61,15.61Z"/>
            <path class="cls-21" d="m2594.8,2040.71c-6.01,0-11.73-3.49-14.3-9.34l-13.82-31.5h-34.39c-8.62,0-15.61-6.99-15.61-15.61s6.99-15.61,15.61-15.61h44.59c6.19,0,11.8,3.66,14.29,9.34l17.91,40.83c3.46,7.89-.13,17.1-8.02,20.56-2.04.9-4.17,1.32-6.26,1.32Z"/>
            <path class="cls-62" d="m3193.14,3173.82c-5.33,0-10.53-2.73-13.44-7.66l-46.75-78.88c-4.39-7.42-1.94-16.99,5.47-21.38,7.41-4.4,16.99-1.95,21.38,5.47l46.75,78.88c4.39,7.42,1.94,16.99-5.47,21.38-2.5,1.48-5.24,2.19-7.94,2.19Zm-93.49-157.76c-5.33,0-10.53-2.73-13.44-7.66l-46.75-78.88c-4.4-7.42-1.95-16.99,5.47-21.38,7.41-4.4,16.98-1.95,21.38,5.47l46.75,78.88c4.4,7.42,1.95,16.99-5.47,21.38-2.5,1.48-5.24,2.19-7.94,2.19Zm-93.49-157.75c-5.33,0-10.52-2.73-13.44-7.66l-46.75-78.88c-4.4-7.42-1.95-16.99,5.47-21.38,7.42-4.4,16.99-1.95,21.38,5.47l46.75,78.88c4.4,7.42,1.95,16.99-5.47,21.38-2.5,1.48-5.24,2.19-7.94,2.19Zm-93.49-157.75c-5.33,0-10.53-2.73-13.44-7.66l-46.75-78.88c-4.4-7.42-1.95-16.99,5.47-21.38,7.41-4.41,16.99-1.95,21.38,5.47l46.75,78.88c4.39,7.42,1.94,16.99-5.47,21.38-2.5,1.48-5.24,2.19-7.94,2.19Zm-93.5-157.76c-5.33,0-10.53-2.73-13.44-7.66l-15.91-26.84c-.32-.54-.61-1.11-.87-1.69l-24.3-55.39c-3.46-7.89.13-17.1,8.02-20.56,7.9-3.47,17.1.13,20.56,8.02l23.91,54.52,15.42,26.03c4.4,7.42,1.95,16.99-5.47,21.38-2.5,1.48-5.24,2.19-7.94,2.19Zm-77.04-166.2c-6.01,0-11.73-3.49-14.3-9.34l-36.83-83.97c-3.46-7.89.13-17.1,8.02-20.56,7.9-3.47,17.1.13,20.56,8.02l36.83,83.97c3.46,7.89-.13,17.1-8.02,20.56-2.04.9-4.17,1.32-6.26,1.32Zm-73.66-167.94c-6.01,0-11.73-3.49-14.3-9.34l-36.83-83.97c-3.46-7.89.13-17.1,8.02-20.56,7.9-3.47,17.1.13,20.56,8.02l36.83,83.97c3.46,7.89-.13,17.1-8.02,20.56-2.04.9-4.17,1.32-6.26,1.32Z"/>
            <path class="cls-63" d="m3262.62,3291.05c-5.33,0-10.53-2.73-13.44-7.66l-22.73-38.36c-4.4-7.42-1.95-16.99,5.47-21.38,7.41-4.4,16.99-1.95,21.38,5.47l22.73,38.36c4.4,7.42,1.95,16.99-5.47,21.38-2.5,1.48-5.24,2.19-7.94,2.19Z"/>
          </g>
        </g>
        <g>
          <path class="cls-13" d="m1448.45,860.27c0,80.64-112.98,227.8-164.11,290.27-12.72,15.54-36.51,15.54-49.23,0-51.13-62.47-164.11-209.62-164.11-290.27,0-104.23,84.49-188.72,188.72-188.72s188.72,84.49,188.72,188.72Z"/>
          <circle class="cls-3" cx="1259.73" cy="860.27" r="105.25"/>
          <circle class="cls-9" cx="1259.73" cy="1242.35" r="38.57" transform="translate(-166.84 2288.89) rotate(-80.87)"/>
          <g>
            <g>
              <path class="cls-28" d="m1200.99,862.12c4.22,0,7.65-3.43,7.65-7.65h-15.3c0,4.23,3.42,7.65,7.65,7.65Z"/>
              <polygon class="cls-7" points="1322.03 806.44 1201.06 806.44 1193.34 849.03 1330.37 849.03 1322.03 806.44"/>
              <path class="cls-10" d="m1218.4,862.12c4.22,0,7.65-3.43,7.65-7.65h-15.3c0,4.23,3.43,7.65,7.65,7.65Z"/>
              <path class="cls-57" d="m1235.81,862.12c4.22,0,7.65-3.43,7.65-7.65h-15.3c0,4.23,3.43,7.65,7.65,7.65Z"/>
              <path class="cls-15" d="m1253.22,862.12c4.23,0,7.65-3.43,7.65-7.65h-15.3c0,4.23,3.42,7.65,7.65,7.65Z"/>
              <path class="cls-33" d="m1322.85,862.12c-4.22,0-7.65-3.43-7.65-7.65h15.3c0,4.23-3.42,7.65-7.65,7.65Z"/>
              <path class="cls-46" d="m1305.44,862.12c-4.22,0-7.65-3.43-7.65-7.65h15.3c0,4.23-3.42,7.65-7.65,7.65Z"/>
              <path class="cls-56" d="m1288.03,862.12c-4.22,0-7.65-3.43-7.65-7.65h15.3c0,4.23-3.43,7.65-7.65,7.65Z"/>
              <path class="cls-44" d="m1270.62,862.12c-4.22,0-7.65-3.43-7.65-7.65h15.3c0,4.23-3.43,7.65-7.65,7.65Z"/>
            </g>
            <path class="cls-34" d="m1201.03,865.07v56.6h121.79v-56.6h-121.79Zm104,43.41h-86.2v-31.32h86.2v31.32Z"/>
          </g>
          <g class="cls-32">
            <path class="cls-64" d="m1258.89,1073.05c11.97-78.85,64.04-104.09,55.11-178.54-10.31-85.86-86.33-108.73-88.17-185.15-.3-12.3,1.38-24.17,4.54-35.53-90.28,14.1-159.36,92.2-159.36,186.44,0,80.64,112.98,227.8,164.11,290.27,7.49,9.15,18.81,12.91,29.45,11.29-9.15-34.54-9.43-64.03-5.67-88.77Z"/>
          </g>
        </g>
        <g>
          <path class="cls-51" d="m4341.29,1399.25c0,414.72-581,1171.49-843.93,1492.73-65.43,79.94-187.74,79.94-253.17,0-262.93-321.24-843.93-1078.01-843.93-1492.73,0-536,434.52-970.52,970.52-970.52s970.52,434.52,970.52,970.52Z"/>
          <circle class="cls-12" cx="3370.78" cy="3364.15" r="198.37"/>
          <path class="cls-54" d="m4315.03,1399.25c0,414.72-581,1171.49-843.93,1492.73-65.43,79.94-187.74,79.94-253.17,0-262.93-321.24-843.93-1078.01-843.93-1492.73,0-536,434.52-970.52,970.52-970.52s970.52,434.52,970.52,970.52Z"/>
          <circle class="cls-3" cx="3344.51" cy="1399.25" r="541.27"/>
          <circle class="cls-55" cx="3344.51" cy="3364.15" r="198.37"/>
          <g class="cls-22">
            <path class="cls-3" d="m3340.22,2493.5c61.58-405.5,329.35-535.29,283.39-918.17-53.01-441.57-443.99-559.18-453.42-952.18-1.52-63.27,7.09-124.28,23.32-182.71-464.28,72.53-819.52,474.17-819.52,958.81,0,414.72,581,1171.49,843.93,1492.73,38.51,47.05,96.73,66.38,151.46,58.04-47.05-177.61-48.48-329.27-29.16-456.52Z"/>
          </g>
          <g>
            <polygon class="cls-29" points="3353.89 1012.14 2970.97 1286.52 3736.1 1286.52 3353.89 1012.14"/>
            <path class="cls-20" d="m3013.89,1330.98v388.58h680.01v-388.58h-680.01Zm303.32,234.6h-203.97v-151.6h203.97v151.6Zm258.62,113.39h-149.98v-264.99h149.98v264.99Z"/>
          </g>
        </g>
        <g>
          <path class="cls-52" d="m2682.02,2179.83s13.03-68.06,26.07-88.34c13.03-20.27,37.35-33.31,37.35-33.31,0,0,5.07,8.33-11.07,25.89-16.14,17.56-2.68,19.29,0,24.94,2.68,5.65-3.11,25.92-14.69,33.16-11.59,7.24-15.93,46.72-15.93,46.72l-21.72-9.06Z"/>
          <path class="cls-39" d="m2719.67,2171.14c-14-2.41-28-4.83-42-7.24-50.1,92.89-108.8,152.59-148.77,187.25-47.23,40.96-77.72,67.4-127.83,80.66-74.02,19.59-137.96-3.41-146.26,17.38-4.06,10.16,10.03,21.16,32.58,48.15,65.68,78.59,59.47,120.84,95.58,132.51,29.83,9.64,59.86-11.09,110.78-47.43,46.33-33.05,104.42-74.5,153.5-153.51,65.84-105.98,72.44-210.24,72.41-257.77Z"/>
          <path class="cls-19" d="m2102.76,2457.63c-6.81,2.57-110.6,43.85-131.94,152.18-1.72,8.75-18.4,101.83,44.72,167.58,70.78,73.73,207.07,71.9,261.16,10.27,12.62-14.37,19.27-30.31,23-43.69h0l-14.25-37.87c-17.39-21-41.07-25.97-53.72-29.09-31.18-7.68-54.72,6.2-72.57-8.83-9.88-8.32-11.84-20.29-13.6-30.99-5.97-36.43,14.59-58.85,16.09-81.31,1.12-16.79,7-53.59-14.92-77.58-13.88-15.19-33.11-19.33-43.97-20.66Z"/>
          <path class="cls-14" d="m2062.31,3664.96c-1.21-6.67-22.75-12.71-33.41-3.77-5.3,4.44-8.94,13.43-5.88,17.49,1.11,1.48-3.45,4.08.92,4.13,14.51.17,39.57-11.21,38.37-17.84Z"/>
          <path class="cls-27" d="m2039.74,3667.38l-22.15-3.13c10.26-12.35,8.36-51.7,8.36-51.7l23.56,5.26s-2.68,10.8-7.25,26.73c-1.56,5.45-2.26,13.99-2.52,22.84Z"/>
          <path class="cls-53" d="m2041.7,3664.66s-26.67-6.14-29.55-.85c-2.89,5.29-5.12,19.45,11.8,19,16.92-.46,19.26-13.66,17.76-18.14Z"/>
          <path class="cls-23" d="m2366.24,3689.97c-2.13-6.43-24.3-9.4-33.61.94-4.62,5.13-6.97,14.55-3.37,18.14,1.31,1.31-2.85,4.52,1.49,3.96,14.39-1.86,37.61-16.64,35.49-23.03Z"/>
          <path class="cls-11" d="m2344.22,3695.53h-22.37c8.43-13.67,1.04-52.36,1.04-52.36l24.06,1.91s-1.15,11.07-3.44,27.48c-.78,5.62-.28,14.17.7,22.97Z"/>
          <path class="cls-30" d="m2402.2,2849.58c10.36,34.22,25.16,89.45,34.69,158.75,27.17,197.65-30.58,203.96-19.8,422.98,3.44,69.91-60.57,231.13-66.21,234.69-2.73.26-5.69.44-8.85.35-5.57-.17-13.42-1.02-22.55-3.76-10.14-1.75-46.7-100.77-38.22-159.64,6-41.67,4.26-86.39.78-175.83-.56-14.49-37.64-281.95-37.64-281.95h0c-11.28,99-24.25,183.12-35.49,248.33-36.13,209.53-153.6,336.35-159.73,338.39-1.21.49-12.23,4.49-21.25-1.45-4.01-2.64-5.38-6.05-5.38-6.05-3.14-2.46.93-209.19,36.76-364.78,52.01-225.83,29.36-278.67,45.84-379.54,14.26-87.28,297.05-30.49,297.05-30.49Z"/>
          <path class="cls-47" d="m2192.13,2440c34.53-1.01,113.89-13.2,157.6,26.13.76.68-8.19,5.47-3.79,10.63,4.09,4.8,18.14,21.59,30.86,44.29,9.22,16.44,17.54,35.6,25.94,64.16,14.81,50.37,19.06,93.26,20.48,111.94,7.99,105.09.07,153.57-7.12,186.54-31.22,16.04-111.66,44.73-207.51,30.47-43.77-6.51-78.8-21.08-103.45-34.08,24.87-75.3,5.36-115.6-3.85-152.74-13.13-52.96-13.34-48.96-24.15-91.03-17.83-69.42-20.76-140.35-8.51-154.86,33.04-39.14,92.57-40.55,123.48-41.46Z"/>
          <path class="cls-8" d="m2345.79,3692.55s-27.27-2.35-29.38,3.29c-2.12,5.64-2.35,19.98,14.34,17.16,16.69-2.82,17.16-16.22,15.04-20.45Z"/>
          <g>
            <path class="cls-60" d="m2264.68,2375.3c5.68-20.23-4.25-38.96-6.44-43-9.16-16.9-11.51-19.21-15.88-22.13l-6.08-3.75s-.35-.14-.72-.27c-3.9-1.39-17.19-1.79-19.88-1.22-8.6,1.84-17.76,36.87-15.14,86.4-.36,1.89-.7,3.79-1.03,5.71-1.35,7.82-2.43,15.49-3.26,22.98-.8,7.17-5.56,13.28-12.31,15.83-45.7,17.25-45.61,3.47-50.34,18.32-2.57,8.08,49.32,21.14,74.85,18.19,57.44.43,104.17-5.69,99.14-14.73-2.23-4.02-46.74-15.64-59.25-27.17-11.46-10.55-10.53-21.45-11.47-29.25,3.47-1.8,23.62-11,27.8-25.91Z"/>
            <path class="cls-1" d="m2254.11,2292.35c-.05,15.34-7.28,31.73-10.97,34.36-.48.34-3.15,2.46-5.56,6.07-.33.49-.62,1.07-.87,1.81-3.36,9.67,12.01,21.05,9.05,25.38-2.15,3.14-12.6-1.06-13.84,1.65-1.17,2.55,7.51,7.84,6.18,10.9-1,2.31-6.35.2-9.72,3.73-1.68,1.76-1.19,3.16-2.97,8.54-1.01,3.04-2.41,6.38-3.51,8.23-5.3,9.01-20.32,12.3-23.21,8.69-.8-1-.11-1.85-.94-5.22,0,0-.76-3.13-2.94-6.74-3.11-5.16-10.61-8.85-18.17-14.3-14.01-10.09-17.82-18.69-18.97-21.6-.41-1.04-.66-1.82-.84-2.38-3.64-11.31-3.66-27.92,1.42-38.14,8.52-17.11,27.73-8.99,43.46-25.95,18.15-19.56,7.34-46.31,17.19-49.26,10.85-3.26,35.29,25.84,35.2,54.22Z"/>
            <path class="cls-36" d="m2240.25,2356.37c-3.76-5.17-10.37-.31-10.41,6.37-.04,6.69,6.44,13.64,12.72,12.32,6.29-1.32,2.74-11.74-2.32-18.69Z"/>
          </g>
          <path class="cls-38" d="m2116.15,2832.7s-.09,0-.14,0c-.69-.07-1.19-.7-1.12-1.39,4.08-36.69-3.52-63.34-10.23-86.85-1.65-5.8-3.22-11.29-4.58-16.79-7.45-30.06-10.71-41.66-14.17-53.95-2.25-8-4.57-16.27-8.18-30.1-.18-.67.23-1.36.9-1.54s1.36.23,1.54.91c3.6,13.8,5.92,22.06,8.16,30.05,3.46,12.31,6.73,23.93,14.18,54.03,1.35,5.46,2.91,10.92,4.56,16.7,6.77,23.74,14.45,50.65,10.31,87.83-.07.64-.62,1.12-1.25,1.12Z"/>
          <path class="cls-1" d="m2237.2,2345.19l8.72,11.35s9.41,13.91,14.9,6.29c4.49-6.22,5.65-6.09,5.92-5.82.05.05.07.12.08.12.08-.02-.66-3.1-1.32-5.8,2.32,3.33,5.52,8.74,7.46,16.02,1.88,7.07,3.9,14.64-.09,21.91-.23.42-4.62,8.16-12.83,10.03,0,0-3.23.74-16.86-1.66,0,0,14.9-10.81,15.13-13.38.62-6.98-9.07-10.76-16.26-25.07-2.77-5.52-4.14-10.53-4.86-13.97Z"/>
        </g>
      </g>
    </g>
  </g>
</svg>