<?xml version="1.0" encoding="UTF-8"?>
<svg id="Layer_1" data-name="Layer 1" xmlns="http://www.w3.org/2000/svg" viewBox="0 0 347.19 331.32">
  <defs>
    <style>
      .cls-1, .cls-2 {
        fill: #fff;
      }

      .cls-3 {
        fill: #ff4848;
      }

      .cls-4 {
        fill: #33222c;
      }

      .cls-5, .cls-6 {
        fill: #418bd6;
      }

      .cls-7 {
        fill: #8c7e81;
      }

      .cls-8 {
        fill: #2b1722;
      }

      .cls-2, .cls-9, .cls-6 {
        opacity: .5;
      }

      .cls-10 {
        fill: #f66;
      }

      .cls-9, .cls-11 {
        fill: #62aeed;
      }

      .cls-12 {
        fill: #f73131;
      }

      .cls-13 {
        fill: #f9a30b;
      }

      .cls-14 {
        fill: #76c1f4;
      }

      .cls-15 {
        fill: #442e3a;
      }

      .cls-16 {
        fill: #74a9d1;
      }

      .cls-17 {
        fill: #c6b7b8;
      }

      .cls-18 {
        fill: #3d79c2;
      }

      .cls-19 {
        fill: #ffc033;
      }

      .cls-20 {
        fill: #7a6c6f;
      }

      .cls-21 {
        fill: #ad9e9f;
      }

      .cls-22 {
        fill: #33212a;
      }

      .cls-23 {
        fill: #e52525;
      }

      .cls-24 {
        fill: #e0d4d3;
      }

      .cls-25 {
        fill: #bbd9f9;
      }

      .cls-26 {
        fill: #9ec8e8;
      }

      .cls-27 {
        fill: #ffdc48;
      }

      .cls-28 {
        fill: #bad8f8;
      }
    </style>
  </defs>
  <g>
    <path class="cls-21" d="m13.18,124.89l22.23-13.99s-5.05-11.41-5.28-11.41-8.8-5.24-12.48-3.35c-3.67,1.9-5.51,6.18-5.82,11.31-.31,5.13,1.34,17.43,1.34,17.43Z"/>
    <g>
      <path class="cls-8" d="m67.61,135.96c0-13.89-8.45-30.03-18.87-36.05-2.63-1.52-8.2-2.41-10.68-2.4-1.95,0-7.55,1.84-14.21,6.81-5.59,4.18-6.2,11.16-6.2,11.16l21.19,43.54s3.91,2.81,10.12.43c2.73-1.05,6.58-3.51,8.65-4.9,4.13-2.78,6.08-4.82,7.28-7.01.53-.96,1.32-2.89,1.56-3.62.74-2.26,1.14-4.92,1.14-7.95Z"/>
      <ellipse class="cls-15" cx="35.89" cy="132.47" rx="16.39" ry="28.96" transform="translate(-49 24.63) rotate(-23.05)"/>
      <path class="cls-8" d="m20.55,124.09c0,10.94,6.65,23.65,14.86,28.38,8.2,4.74,14.86-.29,14.86-11.23s-6.65-23.65-14.86-28.38c-8.2-4.74-14.86.29-14.86,11.23Z"/>
      <path class="cls-24" d="m24.67,126.19c0,8.26,5.02,17.86,11.22,21.44,6.2,3.58,11.22-.22,11.22-8.48s-5.02-17.86-11.22-21.44-11.22.22-11.22,8.48Z"/>
      <g>
        <path class="cls-1" d="m35.5,119.43c5.57,3.21,10.08,11.84,10.08,19.26s-4.51,10.83-10.08,7.62c-5.57-3.21-10.08-11.84-10.08-19.26s4.51-10.83,10.08-7.62Zm2.19,2.49c-.25-.36-1.34-1.22-2.13-1.66-.86-.47-1.79-1.18-3.73-1.03-.42.03-.85.28-1.06.5-.31.34-.25.75.1,1.44.33.65.82,1.58,1.28,2.26.23.34.37.19.84.23.47.04.99.08,1.36.24.92.39,1.6.83,2.24,1.35.32.26.48.18.61,0,.35-.49.61-1.16.81-1.84.12-.41.1-.88-.32-1.47Zm-7.55,7.85c0,3.95,2.4,8.54,5.37,10.26,2.96,1.71,5.37-.11,5.37-4.06s-2.4-8.54-5.37-10.26c-2.96-1.71-5.37.11-5.37,4.06Zm13.98,3.11c-.74-3.14-1.49-4.31-2.1-5.48-.56-1.08-1.47-2.44-1.76-2.68-.48-.4-.74-.25-.9.12-.26.6-.5,1.3-.61,2.06-.04.28-.02.57.25.98.54.8,1.05,1.69,1.64,2.98.24.52.47,1.31.69,2.05.22.73.2,1.01.47,1.23.55.44,1.24.82,1.71,1.07.5.27.75.19.79-.44.03-.42-.02-1.2-.18-1.88Zm-2.24,12.76c.27,0,1.01-.66,1.43-1.32.46-.72,1.07-1.3,1.33-4.02.06-.59-.02-1.38-.12-1.86-.15-.72-.43-1.02-.92-1.17-.47-.15-1.14-.35-1.65-.36-.26,0-.18.32-.3.91-.11.59-.23,1.23-.4,1.58-.41.86-.81,1.37-1.25,1.75-.22.19-.2.48-.11.82.24.91.62,1.87,1.01,2.75.23.53.53.92.98.92Zm-9.28-2.91c.26.42.76,1.06,1.22,1.47,2.11,1.87,2.98,1.92,3.83,2.18.78.23,1.8.26,2,.09.34-.28.29-.76.09-1.3-.33-.9-.73-1.85-1.18-2.68-.17-.31-.36-.54-.66-.55-.6-.01-1.26-.14-2.17-.53-.37-.15-.91-.56-1.41-.93-.5-.37-.67-.66-.86-.49-.38.33-.74.9-.98,1.3-.26.42-.26.82.14,1.45Zm-5.64-9.11c.41,1.25.71,2.6,2.44,5.34.37.59.9,1.18,1.22,1.46.49.42.71.3.88-.24.15-.51.37-1.26.44-1.95.04-.35-.18-.53-.55-1.2-.37-.67-.77-1.4-.98-1.93-.51-1.32-.79-2.31-.98-3.25-.1-.48-.29-.69-.52-.87-.62-.46-1.29-.78-1.91-1.02-.38-.15-.67-.07-.72.55-.03.37.3,1.97.68,3.12Zm.03-5.09c.62.27,1.28.49,1.86.52.22.01.38-.06.4-.49.03-.85.15-1.67.45-2.67.12-.4.42-.84.69-1.25.27-.41.47-.42.37-.82-.21-.81-.58-1.79-.84-2.48-.27-.72-.54-1.04-.99-1-.29.03-.75.21-1.04.53-1.35,1.47-1.43,2.67-1.64,3.67-.19.92-.25,2.36-.15,2.78.17.71.5,1.04.88,1.2Z"/>
        <path class="cls-17" d="m34.93,127.75c2.41,1.39,4.37,5.13,4.37,8.35s-1.96,4.7-4.37,3.3c-2.41-1.39-4.37-5.13-4.37-8.35s1.96-4.7,4.37-3.3Z"/>
        <path class="cls-15" d="m43.51,135.2c-.48-.26-1.16-.63-1.71-1.07-.27-.22-.25-.5-.47-1.23-.22-.73-.46-1.53-.69-2.05-.59-1.29-1.1-2.18-1.64-2.98-.27-.4-.29-.69-.25-.98.11-.76.35-1.46.61-2.06.16-.37.42-.52.9-.12.29.24,1.2,1.6,1.76,2.68.61,1.17,1.36,2.33,2.1,5.48.16.68.21,1.46.18,1.88-.04.64-.29.71-.79.44Z"/>
        <path class="cls-15" d="m37.19,125.22c-.13.18-.29.27-.61,0-.65-.52-1.32-.95-2.24-1.35-.37-.16-.88-.2-1.36-.24-.47-.04-.61.11-.84-.23-.46-.68-.94-1.61-1.28-2.26-.35-.68-.42-1.1-.1-1.44.21-.22.64-.47,1.06-.5,1.95-.15,2.87.56,3.73,1.03.8.44,1.89,1.31,2.13,1.66.41.6.44,1.07.32,1.47-.2.67-.46,1.35-.81,1.84Z"/>
        <path class="cls-15" d="m26.25,124.55c.21-1,.28-2.19,1.64-3.67.29-.32.75-.5,1.04-.53.45-.04.71.28.99,1,.26.68.63,1.67.84,2.48.1.4-.1.42-.37.82-.27.41-.57.85-.69,1.25-.3.99-.42,1.81-.45,2.67-.02.43-.18.5-.4.49-.58-.03-1.24-.25-1.86-.52-.38-.16-.7-.49-.88-1.2-.1-.43-.04-1.86.15-2.78Z"/>
        <path class="cls-15" d="m26.99,129.95c.62.24,1.29.57,1.91,1.02.23.17.42.39.52.87.2.95.47,1.93.98,3.25.2.53.61,1.26.98,1.93.37.67.59.86.55,1.2-.07.69-.29,1.44-.44,1.95-.16.54-.39.66-.88.24-.32-.28-.85-.87-1.22-1.46-1.73-2.74-2.04-4.09-2.44-5.34-.38-1.15-.71-2.75-.68-3.12.05-.62.34-.69.72-.55Z"/>
        <path class="cls-15" d="m33.44,139.98c.19-.16.36.12.86.49.5.37,1.04.78,1.41.93.92.38,1.57.51,2.17.53.3,0,.49.24.66.55.46.83.85,1.78,1.18,2.68.2.54.25,1.02-.09,1.3-.2.17-1.22.14-2-.09-.85-.25-1.72-.31-3.83-2.18-.46-.4-.96-1.05-1.22-1.47-.39-.64-.4-1.03-.14-1.45.25-.4.61-.97.98-1.3Z"/>
        <path class="cls-15" d="m39.99,141.15c.44-.39.84-.89,1.25-1.75.17-.35.28-.99.4-1.58.11-.59.04-.91.3-.91.51.01,1.19.21,1.65.36.49.15.77.45.92,1.17.1.48.18,1.27.12,1.86-.26,2.72-.87,3.3-1.33,4.02-.42.66-1.16,1.32-1.43,1.32-.45,0-.75-.39-.98-.92-.39-.88-.76-1.84-1.01-2.75-.09-.34-.12-.63.11-.82Z"/>
      </g>
    </g>
    <g>
      <path class="cls-8" d="m108.33,159.83c0-13.89-8.45-30.03-18.87-36.05-2.63-1.52-8.2-2.41-10.68-2.4-1.95,0-7.55,1.84-14.21,6.81-5.59,4.18-6.2,11.16-6.2,11.16l21.2,43.54s3.91,2.81,10.12.43c2.73-1.05,6.58-3.51,8.65-4.9,4.13-2.78,6.08-4.82,7.28-7.01.53-.96,1.32-2.89,1.56-3.62.74-2.26,1.14-4.92,1.14-7.95Z"/>
      <ellipse class="cls-15" cx="76.61" cy="156.33" rx="16.39" ry="28.96" transform="translate(-55.1 42.48) rotate(-23.05)"/>
      <path class="cls-8" d="m61.27,147.96c0,10.94,6.65,23.65,14.86,28.38,8.2,4.74,14.86-.29,14.86-11.23s-6.65-23.65-14.86-28.38c-8.2-4.74-14.86.29-14.86,11.23Z"/>
      <path class="cls-24" d="m65.39,150.06c0,8.26,5.02,17.86,11.22,21.44,6.2,3.58,11.22-.22,11.22-8.48s-5.02-17.86-11.22-21.44c-6.2-3.58-11.22.22-11.22,8.48Z"/>
      <g>
        <path class="cls-1" d="m76.22,143.29c5.57,3.21,10.08,11.84,10.08,19.26s-4.51,10.83-10.08,7.62-10.08-11.84-10.08-19.26,4.51-10.83,10.08-7.62Zm2.19,2.49c-.25-.36-1.34-1.22-2.13-1.66-.86-.47-1.79-1.18-3.73-1.03-.42.03-.85.28-1.06.5-.31.33-.25.75.1,1.44.33.65.82,1.58,1.28,2.26.23.34.37.19.84.23.47.04.99.08,1.36.24.92.39,1.59.83,2.24,1.35.32.26.48.18.61,0,.35-.49.61-1.16.81-1.84.12-.41.09-.88-.32-1.47Zm-7.55,7.85c0,3.95,2.4,8.54,5.37,10.26s5.37-.11,5.37-4.06-2.4-8.55-5.37-10.26-5.37.11-5.37,4.06Zm13.98,3.11c-.74-3.14-1.49-4.31-2.1-5.48-.56-1.08-1.47-2.44-1.76-2.68-.48-.4-.74-.25-.9.12-.26.6-.5,1.3-.61,2.06-.04.28-.02.57.25.98.54.8,1.05,1.7,1.64,2.98.24.52.47,1.31.69,2.05.22.73.2,1.01.47,1.23.55.44,1.24.82,1.71,1.07.5.27.75.2.79-.44.03-.42-.02-1.2-.18-1.88Zm-2.24,12.76c.27,0,1.01-.66,1.43-1.32.46-.72,1.07-1.3,1.33-4.02.06-.59-.02-1.38-.12-1.86-.15-.72-.43-1.02-.92-1.17-.47-.14-1.14-.35-1.65-.36-.26,0-.18.32-.3.91-.11.59-.23,1.23-.4,1.58-.41.86-.81,1.37-1.25,1.75-.22.19-.2.48-.11.82.24.91.62,1.87,1.01,2.75.23.53.53.92.98.92Zm-9.28-2.91c.26.42.76,1.06,1.22,1.47,2.11,1.87,2.98,1.92,3.83,2.18.78.23,1.8.26,2,.09.34-.28.29-.76.09-1.3-.33-.9-.73-1.85-1.18-2.68-.17-.31-.36-.54-.66-.55-.6-.01-1.26-.14-2.17-.53-.37-.15-.91-.56-1.41-.93-.5-.37-.67-.66-.86-.49-.38.33-.74.9-.98,1.3-.26.42-.26.82.14,1.45Zm-5.64-9.11c.41,1.25.71,2.6,2.44,5.34.37.59.9,1.18,1.22,1.46.49.42.71.3.88-.24.15-.51.37-1.26.44-1.95.04-.35-.18-.53-.55-1.2-.37-.67-.77-1.4-.98-1.93-.51-1.32-.79-2.31-.98-3.25-.1-.48-.29-.69-.52-.87-.62-.46-1.29-.78-1.91-1.02-.38-.15-.67-.08-.72.55-.03.37.3,1.97.68,3.12Zm.03-5.09c.62.27,1.28.49,1.86.52.22.01.38-.06.4-.49.03-.85.15-1.67.45-2.67.12-.4.42-.84.69-1.25.27-.41.47-.42.37-.82-.21-.81-.58-1.79-.84-2.48-.27-.72-.54-1.04-.99-1-.29.03-.75.21-1.04.53-1.35,1.47-1.43,2.67-1.64,3.67-.19.92-.25,2.36-.15,2.78.17.71.5,1.04.88,1.2Z"/>
        <path class="cls-17" d="m75.65,151.62c2.41,1.39,4.37,5.13,4.37,8.35s-1.96,4.7-4.37,3.3c-2.41-1.39-4.37-5.13-4.37-8.35s1.96-4.7,4.37-3.3Z"/>
        <path class="cls-15" d="m84.23,159.06c-.48-.26-1.16-.63-1.71-1.07-.27-.22-.25-.5-.47-1.23-.22-.73-.46-1.53-.69-2.05-.59-1.29-1.1-2.18-1.64-2.98-.27-.4-.29-.69-.25-.98.11-.76.35-1.45.61-2.06.16-.37.42-.52.9-.12.29.24,1.2,1.6,1.76,2.68.61,1.17,1.36,2.33,2.1,5.48.16.68.21,1.46.18,1.88-.04.64-.29.71-.79.44Z"/>
        <path class="cls-15" d="m77.91,149.09c-.13.18-.29.27-.61,0-.65-.52-1.32-.95-2.24-1.35-.37-.16-.88-.2-1.36-.24-.47-.04-.61.11-.84-.23-.46-.68-.94-1.61-1.28-2.26-.35-.68-.42-1.1-.1-1.44.21-.22.64-.47,1.06-.5,1.95-.15,2.87.56,3.73,1.03.8.44,1.89,1.31,2.13,1.66.41.6.44,1.07.32,1.47-.2.67-.47,1.35-.81,1.84Z"/>
        <path class="cls-15" d="m66.97,148.41c.21-1,.28-2.19,1.64-3.67.29-.32.75-.5,1.04-.53.45-.04.71.28.99,1,.26.68.63,1.67.84,2.48.1.4-.1.42-.37.82-.27.41-.57.85-.69,1.25-.3.99-.42,1.81-.45,2.67-.02.43-.18.5-.4.49-.58-.03-1.24-.25-1.86-.52-.38-.16-.7-.49-.88-1.2-.1-.43-.04-1.86.15-2.78Z"/>
        <path class="cls-15" d="m67.71,153.82c.62.24,1.29.57,1.91,1.02.23.17.42.39.52.87.2.95.47,1.93.98,3.25.2.53.61,1.26.98,1.93.37.67.59.86.55,1.2-.07.69-.29,1.44-.44,1.95-.16.54-.39.66-.88.24-.32-.28-.85-.87-1.22-1.46-1.73-2.74-2.04-4.09-2.44-5.34-.38-1.15-.71-2.75-.68-3.12.05-.62.34-.69.72-.55Z"/>
        <path class="cls-15" d="m74.16,163.84c.19-.16.36.12.86.49.5.37,1.04.78,1.41.93.92.38,1.57.51,2.17.53.3,0,.49.24.66.55.46.83.85,1.78,1.18,2.68.2.54.25,1.02-.09,1.3-.2.17-1.22.14-2-.09-.85-.25-1.72-.31-3.83-2.18-.46-.4-.96-1.05-1.22-1.47-.39-.64-.4-1.03-.14-1.45.25-.4.61-.97.98-1.3Z"/>
        <path class="cls-15" d="m80.71,165.01c.44-.39.84-.89,1.25-1.75.17-.35.28-.99.4-1.58.11-.59.04-.91.3-.91.51.01,1.19.21,1.65.36.49.15.77.45.92,1.17.1.48.18,1.27.12,1.86-.26,2.72-.87,3.3-1.33,4.02-.42.66-1.16,1.32-1.43,1.32-.45,0-.75-.39-.98-.92-.39-.88-.76-1.84-1.01-2.75-.09-.34-.12-.63.11-.82Z"/>
      </g>
    </g>
    <g>
      <g>
        <path class="cls-17" d="m123.26,148.34c0-10-6.1-21.66-13.6-25.99l-23.67-13.67v.03l-42.05-24.27c-3.76-2.17-7.16-2.09-9.63-.22l-19.02,11.1c.98-.44,3.31-.97,7.46.83,1.09.47,3.83,1.96,7.59,4.07l2.09,1.18c16.96,9.62,49.55,28.9,53.84,31.07,5.51,2.78,12.4,9.67,14.7,16.1,2.3,6.43,3.05,28.73,3.05,28.73l19.25-11.15v-17.81Z"/>
        <path class="cls-17" d="m15.29,95.31c-.39.17-.57.34-.57.34l.57-.34Z"/>
      </g>
      <path class="cls-24" d="m90.41,133.5l-23.67-13.67v.03l-42.05-24.27c-7.5-4.33-13.6.28-13.6,10.28v17.81l2.09,1.21v-17.81c0-8.46,5.16-12.37,11.51-8.7l52.11,30.08v-.03l13.61,7.86c6.35,3.66,11.51,13.53,11.51,21.99v17.81l2.09,1.21v-17.81c0-10-6.1-21.66-13.6-25.99Z"/>
    </g>
  </g>
  <g>
    <g>
      <polygon class="cls-8" points="107.09 149.43 148.42 125.73 172.71 159.47 131.14 183.47 107.09 149.43"/>
      <path class="cls-8" d="m152.03,149.34l17.4,10.04c2.79,1.61,5.07-.11,5.07-3.83v-10.04c0-3.71-2.28-8.07-5.07-9.68l-17.4-10.04c-2.79-1.61-5.07.11-5.07,3.83v10.04c0,3.72,2.28,8.07,5.07,9.68Z"/>
      <path class="cls-15" d="m110.68,173.05l17.4,10.04c2.79,1.61,5.07-.11,5.07-3.83v-10.04c0-3.72-2.28-8.07-5.07-9.68l-17.4-10.04c-2.79-1.61-5.07.11-5.07,3.83v10.04c0,3.72,2.28,8.07,5.07,9.68Z"/>
      <path class="cls-8" d="m112.96,171.28l12.85,7.42c2.06,1.19,3.74-.08,3.74-2.83v-7.42c0-2.74-1.68-5.96-3.74-7.15l-12.85-7.42c-2.06-1.19-3.74.08-3.74,2.83v7.42c0,2.74,1.68,5.96,3.74,7.15Z"/>
    </g>
    <g>
      <polygon class="cls-22" points="136.92 166.18 178.25 142.48 202.54 176.21 160.97 200.22 136.92 166.18"/>
      <path class="cls-8" d="m181.86,166.09l17.4,10.04c2.79,1.61,5.07-.11,5.07-3.83v-10.04c0-3.72-2.28-8.07-5.07-9.68l-17.4-10.04c-2.79-1.61-5.07.11-5.07,3.83v10.04c0,3.72,2.28,8.07,5.07,9.68Z"/>
      <path class="cls-15" d="m140.51,189.8l17.4,10.04c2.79,1.61,5.07-.11,5.07-3.83v-10.04c0-3.71-2.28-8.07-5.07-9.68l-17.4-10.04c-2.79-1.61-5.07.11-5.07,3.83v10.04c0,3.72,2.28,8.07,5.07,9.68Z"/>
      <path class="cls-22" d="m142.78,188.03l12.85,7.42c2.06,1.19,3.74-.08,3.74-2.83v-7.42c0-2.74-1.68-5.96-3.74-7.15l-12.85-7.42c-2.06-1.19-3.74.08-3.74,2.83v7.42c0,2.74,1.68,5.96,3.74,7.15Z"/>
    </g>
    <g>
      <polygon class="cls-8" points="166.88 183.31 208.21 159.61 232.5 193.34 190.93 217.35 166.88 183.31"/>
      <path class="cls-8" d="m211.82,183.22l17.4,10.04c2.79,1.61,5.07-.11,5.07-3.83v-10.04c0-3.72-2.28-8.07-5.07-9.68l-17.4-10.04c-2.79-1.61-5.07.11-5.07,3.83v10.04c0,3.71,2.28,8.07,5.07,9.68Z"/>
      <path class="cls-15" d="m170.47,206.92l17.4,10.04c2.79,1.61,5.07-.11,5.07-3.83v-10.04c0-3.72-2.28-8.07-5.07-9.68l-17.4-10.04c-2.79-1.61-5.07.11-5.07,3.83v10.04c0,3.72,2.28,8.07,5.07,9.68Z"/>
      <path class="cls-8" d="m172.75,205.16l12.85,7.42c2.06,1.19,3.74-.08,3.74-2.83v-7.42c0-2.74-1.68-5.96-3.74-7.15l-12.85-7.42c-2.06-1.19-3.74.08-3.74,2.83v7.42c0,2.74,1.68,5.96,3.74,7.15Z"/>
    </g>
  </g>
  <g>
    <polygon class="cls-13" points="180.6 182.17 264.5 133.74 83.9 29.72 0 78.16 180.6 182.17"/>
    <polygon class="cls-27" points="180.6 178.45 264.5 130.02 83.9 26 0 74.44 180.6 178.45"/>
    <polygon class="cls-19" points="180.6 178.45 180.6 182.17 0 78.16 0 74.44 180.6 178.45"/>
    <polygon class="cls-15" points="188.6 174.07 196.37 169.63 15.81 65.37 8.05 69.81 188.6 174.07"/>
    <polygon class="cls-15" points="251.8 137.62 259.57 133.18 79.01 28.92 71.24 33.36 251.8 137.62"/>
  </g>
  <g>
    <path class="cls-27" d="m249.98,84.01c1.03.59,1.86,2.19,1.86,3.56s-.84,2-1.86,1.41c-1.03-.59-1.87-2.19-1.87-3.56s.84-2,1.87-1.41Z"/>
    <path class="cls-27" d="m167.35,131.64c1.03.59,1.87,2.19,1.87,3.56s-.84,2-1.87,1.41c-1.03-.59-1.86-2.19-1.86-3.56s.84-2,1.86-1.41Z"/>
    <polygon class="cls-19" points="166.43 131.44 168.5 136.73 251.29 89.02 248.84 83.78 166.43 131.44"/>
  </g>
  <g>
    <path class="cls-13" d="m166.29,167.06c-.54-4.8.1-25.52-.88-34.68-.99-9.19,6.32-7.82,8.77,2.16,2.29,9.31,7.67,37.83,8.87,42.2l-16.77-9.68Z"/>
    <polygon class="cls-13" points="166.66 130.35 167.69 127.76 166.91 126.51 164.28 128.01 166.66 130.35"/>
    <polygon class="cls-13" points="183.06 176.74 180.34 178.29 177.24 173.91 179.42 172.4 183.06 176.74"/>
    <path class="cls-19" d="m163.57,168.61c-.54-4.8.1-25.52-.88-34.68-.99-9.19,6.32-7.82,8.77,2.16,2.29,9.31,7.67,37.83,8.87,42.2l-16.77-9.68Z"/>
  </g>
  <g>
    <polygon class="cls-3" points="277.43 115.42 197.33 163.23 180.95 153.84 261.05 106.03 277.43 115.42"/>
    <polygon class="cls-23" points="277.43 143.95 197.33 191.76 197.33 163.23 277.43 115.42 277.43 143.95"/>
    <polygon class="cls-12" points="197.33 163.23 180.95 153.84 180.95 182.37 197.33 191.76 197.33 163.23"/>
    <polygon class="cls-19" points="194.67 165.29 183.61 158.94 183.61 181.02 194.67 187.36 194.67 165.29"/>
  </g>
  <path class="cls-27" d="m181.94,286.91l.84-84.63c0-.38,1.39-.36,1.39.02l-.84,84.63c0,.98-1.39.98-1.39-.02Z"/>
  <path class="cls-27" d="m86.14,231.2l.84-84.63c0-.38,1.39-.36,1.39.02l-.84,84.63c0,.98-1.39.98-1.39-.02Z"/>
  <g>
    <path class="cls-5" d="m113.33,304.35l5.24-3,16.03-11.52s-2.4-5.77-10.66-4.99c-8.26.78-12.4,8.66-12.81,11.49-.41,2.83,2.2,8.02,2.2,8.02Z"/>
    <path class="cls-5" d="m13.68,246.32l5.31-3.16,16.03-11.52s-2.4-5.77-10.66-4.99c-8.26.78-12.4,8.66-12.81,11.49-.41,2.83,2.13,8.18,2.13,8.18Z"/>
    <g>
      <path class="cls-14" d="m159.28,212.94c-2.65.71-7.87,5.13-9.46,6.52,1.55,2.45,4.15,6.38,4.93,6.37,1.12,0,5.17-4.48,6.73-8.38.74-1.86.59-3.36-.07-4.33-.62-.28-1.33-.39-2.13-.17Z"/>
      <path class="cls-11" d="m155.9,211.77c-2.9,1.48-8.54,5.44-8.54,5.44,0,0,1.76,1.14,2.46,2.24,1.59-1.38,6.81-5.81,9.46-6.52.8-.21,1.51-.1,2.13.17-.83-1.22-3.62-2.3-5.51-1.34Z"/>
    </g>
    <g>
      <g>
        <path class="cls-8" d="m147.42,314.24c0-9.35-5.69-20.21-12.7-24.26-1.77-1.02-3.88-1.55-5.55-1.54-1.31,0-4.66.13-8.14,2.28-4,2.47-4.53,8.08-4.53,8.08l14.27,29.3s4.59,2.25,9.31-.33c2.94-1.61,4.71-4.27,5.52-5.74.35-.65.89-1.95,1.05-2.44.5-1.52.77-3.31.77-5.35Z"/>
        <path class="cls-15" d="m116.08,302.89c0,9.35,5.69,20.21,12.7,24.26,7.01,4.05,12.7-.25,12.7-9.6s-5.69-20.21-12.7-24.26c-7.01-4.05-12.7.25-12.7,9.6Z"/>
        <path class="cls-7" d="m118.54,304.42c0,7.39,4.5,15.99,10.04,19.19,5.55,3.2,10.04-.2,10.04-7.59s-4.5-15.99-10.04-19.19c-5.55-3.2-10.04.2-10.04,7.59Z"/>
      </g>
      <g>
        <path class="cls-1" d="m117.98,303.63c0,7.8,4.74,16.87,10.6,20.25,5.85,3.38,10.6-.21,10.6-8.01s-4.74-16.87-10.6-20.25c-5.85-3.38-10.6.21-10.6,8.01Z"/>
        <g>
          <path class="cls-15" d="m130.53,306.85c.23-.8,1.13-3.9,1.9-6.14.91,1.07,1.73,2.29,2.45,3.6l-3.76,3.52c-.18-.34-.38-.67-.59-.97Z"/>
          <path class="cls-15" d="m131.92,309.93c-.07-.3-.17-.59-.27-.88.26-.19,2.45-1.77,4.19-2.83.6,1.35,1.08,2.77,1.43,4.19l-5.29-.34-.05-.15Z"/>
          <path class="cls-15" d="m132.18,311.83c0-.2-.03-.41-.04-.62.59.18,3.43,1.07,5.61,1.88.08.68.13,1.36.13,2.02s-.05,1.3-.13,1.9l-5.59-4.79c0-.13.03-.25.03-.39Z"/>
          <path class="cls-15" d="m131.9,313.53c.68.62,3.43,3.18,5.49,5.22-.32,1.08-.78,1.98-1.36,2.69l-4.49-7.24c.14-.19.27-.41.37-.67Z"/>
          <path class="cls-15" d="m125.04,306.88c-.52-.27-3.48-1.83-5.73-3.14.05-1.3.26-2.46.61-3.45l5.31,5.77c-.09.25-.15.52-.19.82Z"/>
          <path class="cls-15" d="m125.68,305.25c-.52-.67-3.1-3.95-5.01-6.54.52-.82,1.16-1.46,1.9-1.87l3.61,7.96c-.18.12-.35.26-.5.44Z"/>
          <path class="cls-15" d="m126.95,304.55c-.41-1.11-1.88-5.16-2.91-8.22.86-.15,1.8-.07,2.79.26l.86,8.02c-.26-.06-.5-.08-.74-.05Z"/>
          <path class="cls-15" d="m128.8,305.11c-.08-1.05-.36-4.97-.48-7.87.09.05.17.08.25.13.93.54,1.83,1.24,2.68,2.08l-1.7,6.28c-.24-.23-.5-.44-.76-.61Z"/>
          <path class="cls-15" d="m126.02,311.65c-.39.61-1.91,2.95-3.13,4.6-.78-1.26-1.47-2.62-2.02-4.03l4.68-1.64c.14.37.29.73.47,1.07Z"/>
          <path class="cls-15" d="m125.02,308.29c.03.34.08.68.16,1.03-.41.09-2.99.61-4.99.87-.41-1.39-.69-2.81-.82-4.2l5.65,2.3Z"/>
          <path class="cls-15" d="m130.22,314.95c.2-.02.39-.07.56-.15.33.55,2.68,4.46,4.4,7.48-.68.53-1.47.84-2.35.94l-2.65-8.25h.03Z"/>
          <path class="cls-15" d="m129.43,314.9c.2.95,1.08,5.09,1.66,8.22-.8-.16-1.64-.48-2.52-.98-.14-.08-.27-.18-.41-.27l.51-7.27c.26.14.51.24.76.3Z"/>
          <path class="cls-15" d="m127.57,313.76c-.1.86-.5,4.41-.89,7.02-.98-.84-1.91-1.86-2.75-3l2.94-4.81c.22.29.45.55.7.79Z"/>
        </g>
        <path class="cls-7" d="m125.85,308.17c0,2.01,1.22,4.35,2.73,5.22,1.51.87,2.73-.05,2.73-2.06s-1.22-4.35-2.73-5.22c-1.51-.87-2.73.05-2.73,2.06Z"/>
        <path class="cls-20" d="m126.69,309.08c0,1.08.66,2.34,1.47,2.81.81.47,1.47-.03,1.47-1.11s-.66-2.34-1.47-2.81c-.81-.47-1.47.03-1.47,1.11Z"/>
      </g>
    </g>
    <g>
      <g>
        <path class="cls-8" d="m47.79,255.48c0-9.35-5.69-20.21-12.7-24.26-1.77-1.02-3.88-1.55-5.55-1.54-1.31,0-4.66.13-8.14,2.28-4,2.47-4.53,8.08-4.53,8.08l14.27,29.3s4.59,2.25,9.31-.33c2.94-1.61,4.71-4.27,5.52-5.74.35-.65.89-1.95,1.05-2.44.5-1.52.77-3.31.77-5.35Z"/>
        <path class="cls-15" d="m16.45,244.14c0,9.35,5.69,20.21,12.7,24.26,7.01,4.05,12.7-.25,12.7-9.6s-5.68-20.21-12.7-24.26c-7.01-4.05-12.7.25-12.7,9.6Z"/>
        <path class="cls-7" d="m18.91,245.67c0,7.4,4.5,15.99,10.04,19.19,5.55,3.2,10.04-.2,10.04-7.59s-4.5-15.99-10.04-19.19c-5.55-3.2-10.04.2-10.04,7.59Z"/>
      </g>
      <g>
        <path class="cls-1" d="m18.35,244.88c0,7.8,4.74,16.87,10.6,20.25,5.85,3.38,10.6-.21,10.6-8.01s-4.74-16.87-10.6-20.25c-5.85-3.38-10.6.21-10.6,8.01Z"/>
        <g>
          <path class="cls-15" d="m30.91,248.1c.23-.8,1.13-3.9,1.9-6.14.91,1.07,1.73,2.29,2.45,3.6l-3.76,3.52c-.18-.34-.38-.67-.59-.97Z"/>
          <path class="cls-15" d="m32.3,251.18c-.07-.3-.17-.59-.27-.88.26-.19,2.45-1.77,4.19-2.83.6,1.35,1.08,2.77,1.43,4.19l-5.29-.34-.05-.14Z"/>
          <path class="cls-15" d="m32.55,253.08c0-.2-.03-.41-.04-.62.58.18,3.43,1.07,5.61,1.88.08.68.13,1.36.13,2.02s-.05,1.3-.13,1.9l-5.59-4.79c0-.13.03-.25.03-.39Z"/>
          <path class="cls-15" d="m32.27,254.78c.68.62,3.43,3.18,5.49,5.22-.32,1.08-.78,1.98-1.36,2.69l-4.49-7.24c.14-.19.27-.41.37-.67Z"/>
          <path class="cls-15" d="m25.41,248.13c-.52-.27-3.48-1.83-5.73-3.14.05-1.3.26-2.46.61-3.45l5.31,5.77c-.09.25-.15.52-.19.82Z"/>
          <path class="cls-15" d="m26.05,246.5c-.52-.67-3.1-3.95-5.01-6.54.52-.82,1.16-1.46,1.9-1.87l3.61,7.96c-.18.12-.35.26-.5.44Z"/>
          <path class="cls-15" d="m27.33,245.79c-.41-1.11-1.88-5.16-2.91-8.22.86-.15,1.8-.07,2.79.25l.86,8.02c-.26-.06-.5-.08-.74-.05Z"/>
          <path class="cls-15" d="m29.18,246.35c-.08-1.05-.36-4.97-.48-7.87.09.05.17.08.25.13.93.54,1.83,1.25,2.68,2.08l-1.7,6.28c-.24-.23-.5-.44-.76-.61Z"/>
          <path class="cls-15" d="m26.39,252.9c-.39.61-1.91,2.95-3.13,4.6-.78-1.26-1.47-2.62-2.02-4.03l4.68-1.64c.14.37.29.73.47,1.07Z"/>
          <path class="cls-15" d="m25.39,249.54c.03.34.08.68.16,1.03-.41.09-2.99.61-4.99.87-.41-1.39-.69-2.81-.82-4.2l5.65,2.3Z"/>
          <path class="cls-15" d="m30.59,256.2c.2-.02.39-.07.56-.15.33.55,2.68,4.46,4.4,7.48-.68.53-1.47.84-2.35.94l-2.65-8.25h.03Z"/>
          <path class="cls-15" d="m29.81,256.15c.2.95,1.08,5.09,1.66,8.22-.8-.16-1.64-.48-2.52-.98-.14-.08-.27-.18-.41-.27l.51-7.27c.26.14.51.24.76.3Z"/>
          <path class="cls-15" d="m27.94,255.01c-.09.86-.5,4.41-.89,7.02-.98-.84-1.91-1.86-2.75-3l2.94-4.81c.22.29.45.55.7.79Z"/>
        </g>
        <path class="cls-7" d="m26.22,249.42c0,2.01,1.22,4.35,2.73,5.22,1.51.87,2.73-.05,2.73-2.06s-1.22-4.35-2.73-5.22c-1.51-.87-2.73.05-2.73,2.06Z"/>
        <path class="cls-20" d="m27.07,250.32c0,1.08.66,2.34,1.47,2.81.81.47,1.47-.03,1.47-1.11s-.66-2.34-1.47-2.81c-.81-.47-1.47.03-1.47,1.11Z"/>
      </g>
    </g>
    <g>
      <path class="cls-11" d="m174.57,306.41c-2.44.81-6.41-.22-8.55-1.87-2.59-2.01-4.2-5.53-6.13-8.14-2.49-3.37-5.16-6.61-7.99-9.7-10.82-11.82-23.69-20.47-38.09-27.3-.67.07-1.15-.91-.44-1.26,9.21-4.57,18.22-9.53,26.97-14.93,8.18-5.05,15.89-10.69,23.81-16.1-.06-.06-.14-.12-.2-.18-5.45-5.33-12.24-15.88-18.92-25.06-2.77-3.8-7.25-9.03-12.94-12.29-1.78-1.02-13.98-8.4-24.51-12.84-5.33-2.25-8.74-3.66-10.75-3.64-3.6.04-17.23,1.76-19.87,1.79-1.89.02-3.35.43-4.57,1.15l-59.08,34.06,4.87,8.66s45.93,34.12,59.79,47.23c13.85,13.11,48.49,15.84,60.33,26.05,11.85,10.21,21.08,35.52,21.08,35.52l58.26-33.54c.94-.61,1.77-1.47,2.06-2.6.85-3.23.95-6.62.4-10.17-4.45,2.98-9.33,5.81-13.81,8.58-9.82,6.06-25.82,14.63-31.72,16.57Z"/>
      <path class="cls-14" d="m189.86,242.42c-11.23-6.82-21.35-11.2-25.71-15.31-7.92,5.41-15.64,11.05-23.81,16.1-8.75,5.4-17.76,10.36-26.97,14.93-.71.35-.23,1.33.44,1.26,14.4,6.83,27.27,15.49,38.09,27.3,2.83,3.09,5.5,6.33,7.99,9.7,1.93,2.6,3.53,6.13,6.13,8.14,2.13,1.65,6.1,2.67,8.55,1.87,5.89-1.95,21.89-10.51,31.72-16.57,4.48-2.77,9.36-5.6,13.81-8.58-.47-3.02-1.4-6.16-2.8-9.44-4.98-11.66-13.18-20.74-27.44-29.4Z"/>
    </g>
    <g>
      <path class="cls-5" d="m158.69,305.6c-4.98-11.66-13.18-20.74-27.44-29.4-11.39-6.92-21.66-11.32-25.91-15.48-5.45-5.33-12.24-15.88-18.92-25.06-2.77-3.8-7.25-9.03-12.94-12.29-1.78-1.02-13.98-8.4-24.51-12.84-5.33-2.25-8.74-3.66-10.75-3.64-3.6.04-17.23,1.76-19.87,1.79-4.86.05-6.94,2.66-9.24,6.6-1.33,2.28-2.47,6.13-3.4,10.48-.5,2.31-1.27,7.67-1.07,10.66,1.16,2.2,5.31,6.34,8.35,9.22,0-.22-.02-.44-.02-.65,0-14.13,8.59-20.62,19.19-14.5,10.6,6.12,19.19,22.53,19.19,36.66,0,.6-.04,1.16-.07,1.73l61.36,35.07c-.02-.44-.05-.88-.05-1.32,0-14.13,8.59-20.62,19.19-14.5,10.6,6.12,19.19,22.53,19.19,36.66,0,.45-.03.87-.05,1.31,1.68.99,3.31,1.96,4.46,2.63.93.55,4.99-.68,5.74-3.51,1.57-5.97.65-12.47-2.4-19.61Z"/>
      <path class="cls-18" d="m32.13,230.49c-10.6-6.12-19.19.38-19.19,14.5,0,.21.02.43.02.65.24.22.48.46.71.67,0-.09,0-.17,0-.26,0-12.89,7.83-18.81,17.5-13.23,9.66,5.58,17.5,20.55,17.5,33.43,0,.38-.03.74-.04,1.11l2.63,1.5c.03-.57.07-1.13.07-1.73,0-14.13-8.59-30.54-19.19-36.66Z"/>
      <path class="cls-18" d="m131.75,288.12c-10.6-6.12-19.19.38-19.19,14.5,0,.44.03.88.05,1.32l.72.41c0-.26-.03-.52-.03-.77,0-12.89,7.83-18.81,17.5-13.23,9.66,5.58,17.5,20.55,17.5,33.43,0,.26-.02.5-.03.75.84.5,1.74,1.03,2.62,1.54.02-.43.05-.85.05-1.31,0-14.13-8.59-30.54-19.19-36.66Z"/>
    </g>
    <g>
      <path class="cls-25" d="m137.74,200.13c-2.47,1.92-7.22,5.32-14.95,9.79-12.61,7.28-36.9,19.36-36.9,19.36,0,0,5.58,7.79,7.53,10.57,2.53,3.6,10.39,14.93,10.39,14.93,9.94-8.7,43.01-27.88,49.54-31.33-2.07-3.79-9.61-15.33-15.61-23.33Z"/>
      <path class="cls-26" d="m140.07,241.14c17.13-9.91,19.62-13.6,19.62-13.6l-19.8-29.17s-.66.62-2.14,1.77c6,7.99,13.55,19.54,15.61,23.33-6.54,3.45-39.6,22.63-49.54,31.33l2.51,3.14s15.45-6.21,33.74-16.79Z"/>
      <path class="cls-2" d="m87.22,231.15s26.65-4.8,41-11.06c16.61-7.25,19.8-9.73,19.8-9.73l-8.14-11.99s-8.39,6.42-19.88,13.14c-7.02,4.1-34.12,17.78-34.12,17.78l1.33,1.86Z"/>
    </g>
    <path class="cls-15" d="m106.33,257.93s-10.44-13.09-12.75-16.25c-1.8-2.46-5.81-7.87-7.67-10.55-.53-.76-.62-2.68.49-3.4.67-.44,1.55-.9,2.56-1.36,2.67-1.22,25.4-12.88,34.03-17.98,8.63-5.1,14.83-9.34,15.92-10.02,1.09-.67,1.9,0,4.13,2.85,2.66,3.4,17.26,25.9,17.26,25.9l-.6.42s-11.86-16.43-13.56-19.15c-2.08-3.33-4.92-7.63-6.02-8.25-1.09-.62-12.71,8.25-23.24,14.08-10.54,5.83-26.58,12.79-28.28,13.93-1.7,1.14-.85,1.75,1.21,5.15,2.07,3.4,12.58,17.26,14.01,19.44.71,1.08,2.65,3.93,3.1,4.95-.28.18-.59.24-.59.24Z"/>
    <g>
      <path class="cls-26" d="m81.23,235.44c-7.63-4.41-15.02-9.18-22.92-13.16-4.75-2.39-9.69-5.08-14.74-6.79-7.15-2.43-7.93,5.57-8.14,10.94,4.15,2.38,10.59,6.01,14.37,8.11,8.19,4.56,26.05,14.84,31.81,18.01,2.07,1.14,4.28,2.36,6.38,3.52v-10.27c-2.53-4.05-5.03-7.94-6.75-10.37Z"/>
      <path class="cls-16" d="m43.57,215.49c5.04,1.71,9.99,4.4,14.74,6.79,7.91,3.98,15.29,8.75,22.92,13.16-.26-.36-.5-.7-.72-.99-4.74-6.3-9.79-9.22-13.85-11.67-3.67-2.21-11.45-6.11-15.13-8.03-6.29-3.27-10.32-4.69-12.35-4.72-1.68-.02-5.69,1.6-7.52,3.71l-.09,10.4c.35.24,1.84,1.11,3.86,2.27.21-5.37.99-13.36,8.14-10.94Z"/>
    </g>
    <path class="cls-15" d="m91.27,259.55s5.45,1.09,6.6.4c1.15-.69,1.07-2.89-.42-3.31-1.49-.42-4.72,0-4.72,0l-1.47,2.91Z"/>
    <path class="cls-5" d="m47.86,213.55s.62,15.09-.16,24.01c-.78,8.92-7.17-3.39-7.17-3.39l3.12-22.61,4.21,2Z"/>
    <polygon class="cls-18" points="45.45 212.51 43.51 237.3 44.9 238.64 46.24 212.7 45.45 212.51"/>
    <path class="cls-15" d="m87.98,245.8s-5.56-9.49-11.48-16.28c-2.2-2.53-10.75-7.99-19.28-12.26-8.75-4.37-16.63-8.11-18.46-7.7-2.27.51-7.1,3.69-7.1,3.69l-.1,10.89,1.25.76.12-10.78c.76-.54,3.81-2.86,5.79-3.19,1.91-.32,7.91,2.48,15.13,6.15,7.54,3.83,17.59,9.71,19.96,11.85,4.44,4.01,14.17,18.76,14.17,18.76v-1.89Z"/>
    <g>
      <g>
        <path class="cls-15" d="m207.17,286.99c.08.37.12.83.1,1.4-.12,3.86-.4,6.51-2.65,8.11-2.25,1.6-11.56,7.06-19.59,11.58-5.57,3.13-8.34,3.11-9.87,2.18,1.13,1.79,3.49,3.43,11.15-.87,8.03-4.51,17.35-9.98,19.59-11.58,2.25-1.6,2.53-4.24,2.65-8.11.06-2.03-.52-2.71-1.38-2.72Z"/>
        <path class="cls-8" d="m185.03,308.08c8.03-4.51,17.35-9.98,19.59-11.58,2.25-1.6,2.53-4.24,2.65-8.11.02-.57-.02-1.03-.1-1.4-.78,0-1.8.55-2.79,1.19-7.05,4.57-26.1,15.14-29.38,16.65-2.98,1.37-.66,4.01,0,5.17.05.09.1.17.16.26,1.53.93,4.3.94,9.87-2.18Z"/>
      </g>
      <path class="cls-15" d="m207.78,287.95c-4.78,2.87-9.21,6-14.85,9.2-6.01,3.4-13.17,6.91-19.36,10.07.06.23.18.6.27.81,4.38-1.55,14.18-6.37,19.63-9.66,5.39-3.25,9.78-5.76,14.36-9.03-.02-.46-.04-.93-.04-1.38Z"/>
      <path class="cls-15" d="m207.78,291.32c-4.53,2.76-8.8,5.74-14.18,8.79-5.8,3.28-12.66,6.67-18.7,9.73.18.28.26.51.52.8,4.71-1.83,13.62-6.24,18.72-9.32,5-3.02,9.13-5.38,13.36-8.32.12-.56.23-1.12.29-1.69Z"/>
    </g>
    <path class="cls-5" d="m160.82,297.11c-4.97-8.62-13.8-16.08-21.54-22.13-7.97-6.22-17.29-12.15-26.3-16.76-.51-.26-.87.42-.44.75,8.29,6.26,17.5,11.22,25.7,17.66,3.76,2.95,8.33,6.02,11.71,9.4,3.68,3.68,7.05,7.36,9.73,11.82.3.5,1.41-.26,1.13-.74Z"/>
    <path class="cls-5" d="m211.63,268.68c-4.97-8.62-13.8-16.08-21.54-22.12-7.97-6.22-17.29-12.15-26.3-16.76-.51-.26-.87.42-.44.75,8.29,6.26,17.5,11.22,25.7,17.66,3.76,2.95,8.33,6.02,11.72,9.4,3.68,3.68,7.05,7.36,9.73,11.82.3.5,1.41-.26,1.13-.74Z"/>
    <path class="cls-1" d="m157.71,298.86l7.42-4.16s3.92,4.61,5.72,9.08c2.24,5.54,1.7,11.22,1.7,11.22l-7.66,4.62s.22-5.59-2-11.54c-2.61-7-5.19-9.22-5.19-9.22Z"/>
    <path class="cls-1" d="m204.07,272.64l7.42-4.16s3.01,4.61,4.81,9.08c2.24,5.54,1.7,11.22,1.7,11.22l-7.66,4.62s.22-5.59-2.01-11.54c-2.61-7-4.28-9.22-4.28-9.22Z"/>
    <path class="cls-6" d="m138.66,264.34s14.96,8.12,22.78,13.99c7.83,5.88,13.72,12.85,13.72,12.85,0,0,4.23-1.82,7.7-4.51-1.8-3.06-8.89-8.33-18.5-13.64-8.21-4.53-25.7-8.69-25.7-8.69Z"/>
    <path class="cls-6" d="m173.11,244.66s6.65,8.19,12.05,20.31c2.83,6.36,5.53,13.13,6.45,16.61,3.1-1.54,6.89-3.81,6.89-3.81,0,0-5.43-11.87-14.46-23.2-5.03-6.32-10.94-9.91-10.94-9.91Z"/>
    <path class="cls-2" d="m162.61,234.09c-4.5,3.08-13.56,9.2-22.34,14.71-.82.51-.42,1.68.47,1.73,8.76.55,16.91-2.27,23.79-7.33,6.26-4.61-1.9-9.1-1.92-9.11Z"/>
    <path class="cls-14" d="m100.01,173.76l-40.3,23.07s8.22-2.3,18.69-4.53c7.81-1.67,14.45-1.67,21.8-1.14,18.87,1.37,32.41,8.28,39.63,4.55-3.33-4-13.07-9.63-21.72-13.94-9.08-4.52-18.09-8.01-18.09-8.01Z"/>
    <path class="cls-2" d="m104.9,179.33c-.04-.5-1.16-1.45-1.33-1.5-2.43-.96-4.82-.02-6.9,1.25-1.83,1.12-4.31,2.62-5.82,4.49-.69.86-1.09,1.71.76,1.71,1.76,0,10.81-3.02,12.44-4.03.97-.6,1.13-1.33.85-1.93Z"/>
    <path class="cls-9" d="m48.3,248.4s7.36,2.8,27.6,13.39c16.03,8.39,22.76,11.85,37.11,24.61-4.49,1.55-5.1,9.6-5.1,9.6,0,0-39.56-22.88-54.85-31.44-.45-5.86-1.56-10.52-4.76-16.16Z"/>
    <polygon class="cls-18" points="86.46 257.78 84.52 282.57 85.95 283.33 87.25 257.96 86.46 257.78"/>
    <path class="cls-15" d="m50.46,238.07c-1.84-.71-3.04-.93-3.38.16-.47,1.54,1.71,2.66,2.49,3.07,1.79.94,4.03,2.6,4.91.76.89-1.86-2.54-3.42-4.03-3.99Z"/>
    <g>
      <path class="cls-11" d="m83.93,258.17c2.98-2.87,8.29-5.99,10.32-6.78-.16-.17-.31-.34-.47-.49-1.47-1.28-2.62-.14-4.06.55-3.41,1.63-8.34,4.42-10.4,8.5-1.7,3.37-1.42,5.67,1.25,6.01-.61-2.23.66-5.2,3.36-7.79Z"/>
      <path class="cls-14" d="m90.27,263.24c5.07-2.4,6.27-5.81,5.68-8.61-.26-1.26-.9-2.38-1.7-3.25-2.04.79-7.34,3.91-10.32,6.78-2.69,2.59-3.96,5.56-3.36,7.79,1.93.24,5.1-.54,9.7-2.72Z"/>
    </g>
    <polygon class="cls-18" points="49.7 265.33 112.61 300.98 113.33 304.35 48.62 267.38 49.7 265.33"/>
    <polygon class="cls-26" points="92.6 175.21 40.53 205.15 28.07 206.31 79.33 176.83 92.6 175.21"/>
    <path class="cls-25" d="m10.89,212.51s1.74,2.29,2.42,3.06c1.13,1.28-.02,3.41-1.24,6.57-1.07,2.77-1.99,6.84-3.55,6.05-1.4-.71-2.81-2.43-2.81-2.43,0,0,.91-4.28,2.2-7.87,1.29-3.59,2.99-5.38,2.99-5.38Z"/>
    <polygon class="cls-1" points="204.51 298.83 182.86 311.33 182.86 304.12 204.51 291.62 204.51 298.83"/>
  </g>
  <g>
    <g>
      <g>
        <polygon class="cls-3" points="29.15 268.4 29.64 268.67 29.22 268.91 29.15 268.4"/>
        <path class="cls-3" d="m33.77,270.1l.02,1.29,2.38-1.21s-1.2.06-2.4-.08Z"/>
        <polygon class="cls-12" points="27.62 250.51 27.62 259.02 27.62 260.25 27.62 268.75 28.39 270.11 30.33 269.01 29.64 268.67 29.22 268.91 29.22 261.18 32.19 262.89 32.19 271.39 32.96 272.75 37.76 269.97 35.94 270.13 33.79 271.4 33.79 263.82 33.79 262.58 33.79 254.08 27.62 250.51"/>
        <polygon class="cls-3" points="26.79 250.94 26.79 259.45 26.79 260.68 26.79 269.19 28.39 270.11 28.39 261.61 31.36 263.32 31.36 271.83 32.96 272.75 32.96 264.25 32.96 263.01 32.96 254.51 26.79 250.94"/>
        <polygon class="cls-10" points="27.62 250.51 26.79 250.94 32.96 254.51 33.79 254.08 27.62 250.51"/>
      </g>
      <path class="cls-27" d="m29.97,175.15l-.79,79.32c0,1,1.39,1,1.39.02l.79-79.34h-1.39Z"/>
    </g>
    <g>
      <g>
        <polygon class="cls-3" points="125.95 326.03 126.67 325.59 128.08 326.61 125.95 327.48 125.95 326.03"/>
        <path class="cls-3" d="m130.5,328.2l.02,1.77,2.38-1.21s-1.25-.37-2.17-.69c0,0-.15.1-.23.13Z"/>
        <polygon class="cls-12" points="124.35 309.08 124.35 317.59 124.35 318.82 124.35 327.33 125.12 328.69 128.08 327 128.08 326.61 127.79 326.43 125.95 327.48 125.95 319.75 128.92 321.46 128.92 329.96 129.69 331.32 133.75 328.97 132.67 328.7 130.52 329.97 130.52 322.39 130.52 321.15 130.52 312.65 124.35 309.08"/>
        <polygon class="cls-3" points="123.52 309.52 123.52 318.02 123.52 319.26 123.52 327.76 125.12 328.69 125.12 320.18 128.08 321.89 128.08 330.4 129.69 331.32 129.69 322.82 129.69 321.58 129.69 313.08 123.52 309.52"/>
        <polygon class="cls-10" points="124.35 309.08 123.52 309.52 129.69 313.08 130.52 312.65 124.35 309.08"/>
      </g>
      <path class="cls-27" d="m125.91,313.05l.84-84.63c0-.38,1.39-.36,1.39.02l-.84,84.63c0,.98-1.39.98-1.39-.02Z"/>
    </g>
    <g>
      <polygon class="cls-12" points="180.16 198.58 158.42 211.16 70.97 160.68 92.71 148.09 85.1 143.7 27.03 177.32 34.63 181.71 56.63 168.97 144.08 219.46 122.08 232.2 129.69 236.59 187.77 202.98 180.16 198.58"/>
      <polygon class="cls-3" points="180.16 195.34 158.42 207.92 70.97 157.43 92.71 144.85 85.1 140.45 27.03 174.07 34.63 178.46 56.63 165.73 144.08 216.22 122.08 228.95 129.69 233.34 187.77 199.73 180.16 195.34"/>
      <polygon class="cls-12" points="27.03 174.07 27.03 177.32 34.63 181.71 34.63 178.46 27.03 174.07"/>
      <polygon class="cls-23" points="92.71 144.85 92.71 148.09 73.78 159.05 70.97 157.43 92.71 144.85"/>
      <polygon class="cls-12" points="122.08 228.95 122.08 232.2 129.69 236.59 129.69 233.34 122.08 228.95"/>
      <polygon class="cls-23" points="56.63 165.73 56.63 168.97 34.63 181.71 34.63 178.46 56.63 165.73"/>
      <polygon class="cls-23" points="187.77 199.73 187.77 202.98 129.69 236.59 129.69 233.34 187.77 199.73"/>
    </g>
    <g>
      <polygon class="cls-4" points="155.83 218.02 53.38 158.88 53.38 157.02 155.83 216.16 155.83 218.02"/>
      <polygon class="cls-15" points="155.83 216.16 53.38 157.02 59.69 153.38 162.23 212.58 155.83 216.16"/>
      <polygon class="cls-8" points="162.23 212.58 155.83 216.16 155.83 218.02 162.23 214.44 162.23 212.58"/>
    </g>
    <path class="cls-28" d="m100.39,60.47v122.1c0,1.15,1.76,2.09,3.92,2.09s3.92-.93,3.92-2.09V60.47h-7.85Z"/>
  </g>
  <g>
    <g>
      <g>
        <path class="cls-22" d="m234.11,131.58c-1.84-1.15-4.46-1.88-7.38-1.88s-5.54.73-7.38,1.88h-2.71v3.96c0,3.23,4.52,5.85,10.09,5.85s10.09-2.62,10.09-5.85v-3.96h-2.71Z"/>
        <path class="cls-15" d="m236.82,131.58c0,3.23-4.52,5.85-10.09,5.85s-10.09-2.62-10.09-5.85,4.52-5.85,10.09-5.85,10.09,2.62,10.09,5.85Z"/>
      </g>
      <g>
        <path class="cls-19" d="m231.48,128.3c-1.19-.74-2.86-1.21-4.75-1.21s-3.56.47-4.75,1.21h-1.74v2.55c0,2.08,2.91,3.76,6.49,3.76s6.49-1.68,6.49-3.76v-2.55h-1.74Z"/>
        <path class="cls-27" d="m233.22,128.3c0,2.08-2.9,3.76-6.49,3.76s-6.49-1.68-6.49-3.76,2.9-3.76,6.49-3.76,6.49,1.68,6.49,3.76Z"/>
      </g>
      <path class="cls-28" d="m222.64,52.5v75.51c0,1.31,1.83,2.37,4.1,2.37s4.1-1.06,4.1-2.37V52.5h-8.19Z"/>
    </g>
    <g>
      <g>
        <path class="cls-3" d="m110.67,80.78c-1.29-.95-2.1-2.85-2.1-5.45,0-5.15,3.16-11.19,7.02-13.42L216.9,3.24c1.53-.88,2.95-1.03,4.11-.57l2.95,1.69-110.81,77.86c-1.38-.79-2.41-1.39-2.47-1.43Z"/>
        <path class="cls-12" d="m117.9,82l101.45-58.63c3.86-2.23,7.02-8.27,7.02-13.42s-3.16-7.54-7.02-5.31l-101.45,58.63c-3.86,2.23-7.02,8.27-7.02,13.42s3.16,7.54,7.02,5.31Z"/>
      </g>
      <path class="cls-8" d="m220.87,65.59l-7.28-3.89V14.76c0-5.34,3.27-11.59,7.28-13.9,2.09-1.21,3.97-1.08,5.3.06h.02s6.87,4.03,6.87,4.03l-4.91,8.56-7.28,52.1Z"/>
      <path class="cls-4" d="m220.87,65.59V19.1c0-5.34,3.27-11.59,7.28-13.9,4-2.31,7.28.16,7.28,5.5v46.38l-14.55,8.51Z"/>
      <g>
        <path class="cls-27" d="m217.03,13.12c1.65.95,2.98,3.5,2.98,5.69s-1.33,3.2-2.98,2.25c-1.65-.95-2.98-3.5-2.98-5.69s1.33-3.2,2.98-2.25Z"/>
        <polygon class="cls-27" points="92.91 83.48 97.13 91.44 219.12 21.13 215.21 12.76 92.91 83.48"/>
        <path class="cls-19" d="m95.35,83.19c1.65.95,2.98,3.5,2.98,5.7s-1.33,3.2-2.98,2.25c-1.65-.95-2.98-3.5-2.98-5.69s1.33-3.2,2.98-2.25Z"/>
      </g>
      <path class="cls-28" d="m195.86,32.06s12.53,16.45,21.17,27.71c.4.52,1.67.11,1.67-2.15,0-2.57-.72-4.22-1.49-5.23-8.04-10.47-17.67-23.15-17.67-23.15l-3.68,2.83Z"/>
      <g>
        <path class="cls-4" d="m135.38,89.44c3.48,0,6.8-3.07,10.31-6.32,2.3-2.13,4.69-4.33,7.29-5.88,2.71-1.61,8.63-4.1,15.48-6.98,10.37-4.37,22.13-9.32,28.28-13.44,10.16-6.79,12.92-9.7,14.52-20.56l-.69-.1c-1.58,10.65-4.1,13.31-14.22,20.08-6.1,4.08-18.34,9.23-28.17,13.38-6.87,2.9-12.81,5.4-15.56,7.03-2.67,1.58-5.08,3.81-7.41,5.96-3.51,3.25-6.81,6.31-10.14,6.12-5.42-.32-11.42-9.94-11.48-10.04l-.59.37c.25.41,6.26,10.02,12.03,10.37.12,0,.23,0,.35,0Z"/>
        <path class="cls-3" d="m120.46,87.03c-1.3-.95-2.1-2.85-2.1-5.45,0-5.15,3.16-11.19,7.02-13.42L226.69,9.48c1.53-.88,2.95-1.03,4.11-.57l2.95,1.69-110.81,77.86c-1.38-.79-2.41-1.39-2.48-1.44Z"/>
        <path class="cls-12" d="m127.69,88.25l101.45-58.63c3.86-2.23,7.02-8.27,7.02-13.42s-3.16-7.54-7.02-5.31l-101.45,58.63c-3.86,2.23-7.02,8.27-7.02,13.42s3.16,7.54,7.02,5.31Z"/>
      </g>
      <g>
        <path class="cls-4" d="m230.06,14.58c-2.04,1.18-3.69,4.33-3.69,7.05s1.65,3.97,3.69,2.79c2.04-1.18,3.69-4.33,3.69-7.05s-1.65-3.97-3.69-2.79Z"/>
        <path class="cls-15" d="m231.11,17.1c-1.16.67-2.11,2.47-2.11,4.02s.94,2.26,2.11,1.59c1.16-.67,2.11-2.47,2.11-4.02s-.94-2.26-2.11-1.59Z"/>
      </g>
      <g>
        <polygon class="cls-8" points="150.64 72.08 210.19 37.7 210.19 25.04 150.64 59.42 150.64 72.08"/>
        <g>
          <path class="cls-28" d="m208.93,27.42s0,0,0,0c1.78,1.03,3.22,3.78,3.22,6.16,0,1.36-.48,2.29-1.22,2.64-.12.06-56.71,32.78-56.71,32.78l-2.06-8.77,56.77-32.8Z"/>
          <path class="cls-26" d="m152.15,60.23s0,0,0,0c1.78,1.03,3.22,3.78,3.22,6.16s-1.44,3.46-3.22,2.44c0,0,0,0,0,0v-8.59Z"/>
        </g>
      </g>
    </g>
    <g>
      <path class="cls-4" d="m230.83,108.47l-.03-.89c.17-.12,3.84-2.8,2.09-8.86-1.52-5.24-4.51-8.35-7.68-11.64-.64-.67-1.29-1.34-1.94-2.05-3.85-4.16-6.08-10.76-5.43-16.04.18-1.45.57-2.98,1.06-4.47q.23.12.63.33c-.46,1.42-.83,2.86-1,4.22-.62,5.01,1.59,11.53,5.25,15.49.65.7,1.3,1.37,1.94,2.04,3.23,3.35,6.28,6.52,7.85,11.93,1.89,6.54-2.68,9.9-2.72,9.93Z"/>
      <path class="cls-4" d="m230.83,86.72v-1.24c.05-.06,4.01-5.64,2.53-11.28-1.29-4.9-1.96-14.27-2.25-16.27l.56-.3c.25,1.97.84,11.25,2.34,16.34,1.76,5.96-2.98,12.49-3.18,12.75Z"/>
      <path class="cls-4" d="m233.98,127.51l-.62-.29c.29-.75.34-1.2.17-1.55-.38-.77-2.01-1.34-5.29-2.25-5.69-1.59-8.94-5.28-9.65-10.97-.71-5.73,3.86-18.75,4.04-19.26v2.14c-.04.12-4.04,11.47-3.35,17.04.67,5.39,3.75,8.88,9.14,10.38,3.62,1.01,5.22,1.6,5.73,2.61.33.67.1,1.45-.17,2.15Z"/>
      <path class="cls-4" d="m217.1,129.84c-1.98-2.09-3.28-5.8-.75-9.86,2.67-4.26,6.15-6.85,6.29-6.95v.92s-3.11,2.26-5.7,6.4c-2.93,4.68-.33,7.96.55,8.88l-.39.6Z"/>
    </g>
    <g>
      <path class="cls-8" d="m89.12,77.49v10.35c0,4.07,2.47,5.94,5.53,4.18l10.71-6.18,4.37-6.82v-13.42l-20.61,11.9Z"/>
      <polygon class="cls-8" points="91.41 92.47 98 96.14 96.12 81.35 89.12 77.49 91.41 92.47"/>
      <polygon class="cls-15" points="116.73 69.45 109.73 65.59 89.12 77.49 96.12 81.35 116.73 69.45"/>
      <path class="cls-4" d="m96.12,81.35v10.35c0,4.07,2.47,5.94,5.53,4.18l10.71-6.18,4.37-6.82v-13.42l-20.61,11.9Z"/>
    </g>
    <g>
      <path class="cls-4" d="m104.14,88.27h-1.01c1.17,1.08,2.37,2.19,3.53,3.6,3.75,4.53,4.27,13.64,1.66,17.25v1.17c3.9-3.92,2.8-14.12-1.12-18.86-1.02-1.23-2.04-2.22-3.06-3.16Z"/>
      <path class="cls-4" d="m110.4,88.27c-.84,5.94-3.26,8.98-5.81,12.1l-.17.21c-3.95,4.83-11.7,14.31-6.65,21.91.62.94,1.66,2,2.7,2.87v-.88c-8.48-7.59-.14-17.8,4.49-23.45l.17-.21c2.64-3.22,5.13-6.36,5.98-12.54h-.7Z"/>
      <path class="cls-4" d="m98.18,179.43c-.01-.55-.29-13.5,3.58-20.16l.13-.23c4.31-7.41,5.76-9.9,7.74-15.63,1.94-5.62-1.28-13.03-1.31-13.11v-1.93c.15.35,4,9.39,1.97,15.27-2,5.79-3.46,8.3-7.79,15.76l-.13.23c-3.77,6.49-3.49,19.66-3.49,19.79l-.69.02Z"/>
      <path class="cls-4" d="m107.54,185.43c0-2.48.76-4.75,1.65-7.38,1.1-3.28,2.36-6.99,2.33-12.03-.04-8.87-1.61-12.1-5.19-17.34-1.26-1.84-2.85-3.45-4.38-5-2.76-2.78-5.36-5.41-5.86-9.11-.76-5.68,4.18-14.78,4.38-15.14v1.49c-.05.09-4.42,8.11-3.69,13.56.47,3.47,2.99,6.02,5.66,8.72,1.56,1.57,3.17,3.2,4.47,5.1,3.58,5.24,5.27,8.7,5.31,17.73.02,5.15-1.25,8.92-2.37,12.25-.87,2.57-1.62,4.79-1.61,7.16h-.69Z"/>
    </g>
  </g>
  <g>
    <g>
      <path class="cls-21" d="m192.86,227.99l22.23-13.99s-5.05-11.41-5.28-11.41-8.8-5.24-12.48-3.35c-3.67,1.9-5.51,6.18-5.82,11.31-.31,5.13,1.34,17.43,1.34,17.43Z"/>
      <g>
        <path class="cls-8" d="m247.53,239.61c0-13.89-8.45-30.03-18.87-36.05-2.63-1.52-8.2-2.41-10.68-2.4-1.95,0-7.55,1.84-14.21,6.81-5.59,4.18-6.2,11.16-6.2,11.16l21.19,43.54s3.91,2.81,10.12.43c2.73-1.05,6.58-3.51,8.65-4.9,4.13-2.78,6.08-4.82,7.28-7.01.53-.96,1.32-2.89,1.56-3.62.74-2.26,1.14-4.92,1.14-7.95Z"/>
        <ellipse class="cls-15" cx="215.81" cy="236.11" rx="16.39" ry="28.96" transform="translate(-75.22 103.35) rotate(-23.05)"/>
        <path class="cls-8" d="m200.47,227.74c0,10.94,6.65,23.65,14.86,28.38,8.2,4.74,14.86-.29,14.86-11.23s-6.65-23.65-14.86-28.38c-8.2-4.74-14.86.29-14.86,11.23Z"/>
        <ellipse class="cls-24" cx="215.81" cy="236.31" rx="9.75" ry="17.23" transform="translate(-75.3 103.37) rotate(-23.05)"/>
        <g>
          <path class="cls-1" d="m215.42,223.07c5.57,3.21,10.08,11.84,10.08,19.26s-4.51,10.83-10.08,7.62c-5.57-3.21-10.08-11.84-10.08-19.26s4.51-10.83,10.08-7.62Zm2.19,2.49c-.25-.36-1.34-1.23-2.13-1.66-.86-.47-1.79-1.18-3.73-1.03-.42.03-.85.28-1.06.5-.31.34-.25.75.1,1.44.33.65.82,1.58,1.28,2.26.23.34.37.19.84.23.47.04.99.08,1.36.24.92.39,1.6.83,2.24,1.34.32.26.48.18.61,0,.35-.49.61-1.16.81-1.84.12-.41.09-.88-.32-1.47Zm-7.55,7.85c0,3.95,2.4,8.54,5.37,10.26,2.96,1.71,5.37-.11,5.37-4.06s-2.4-8.54-5.37-10.26c-2.96-1.71-5.37.11-5.37,4.06Zm13.98,3.11c-.74-3.14-1.49-4.31-2.1-5.48-.56-1.08-1.47-2.44-1.76-2.68-.48-.4-.74-.25-.9.12-.26.6-.5,1.3-.61,2.06-.04.28-.02.57.25.98.54.8,1.05,1.69,1.64,2.98.24.52.47,1.31.69,2.05.22.73.2,1.01.47,1.23.55.44,1.24.82,1.71,1.07.5.27.75.2.79-.44.03-.42-.02-1.2-.18-1.88Zm-2.24,12.76c.27,0,1.01-.66,1.43-1.32.46-.72,1.07-1.3,1.33-4.02.06-.59-.02-1.38-.12-1.86-.15-.72-.43-1.02-.92-1.17-.47-.15-1.14-.35-1.65-.36-.26,0-.18.32-.3.91-.11.59-.23,1.23-.4,1.58-.41.86-.81,1.37-1.25,1.75-.22.19-.2.48-.11.82.24.91.62,1.87,1.01,2.75.23.53.53.92.98.92Zm-9.28-2.91c.26.42.76,1.06,1.22,1.47,2.11,1.87,2.98,1.92,3.83,2.18.78.23,1.8.26,2,.09.34-.28.29-.76.09-1.3-.33-.9-.73-1.85-1.18-2.68-.17-.31-.36-.54-.66-.55-.6-.01-1.26-.14-2.17-.53-.37-.16-.91-.56-1.41-.93-.5-.37-.67-.66-.86-.49-.38.33-.74.9-.98,1.3-.26.42-.26.82.14,1.45Zm-5.64-9.11c.41,1.25.71,2.6,2.44,5.34.37.59.9,1.18,1.22,1.46.49.42.71.3.88-.24.15-.51.37-1.26.44-1.95.04-.35-.18-.53-.55-1.2-.37-.67-.77-1.4-.98-1.93-.51-1.32-.79-2.31-.98-3.25-.1-.48-.29-.69-.52-.87-.62-.46-1.29-.78-1.91-1.02-.38-.15-.67-.08-.72.55-.03.37.3,1.97.68,3.12Zm.03-5.09c.62.27,1.28.49,1.86.52.22.01.38-.06.4-.49.03-.85.15-1.67.45-2.67.12-.4.42-.84.69-1.25.27-.41.47-.42.37-.82-.21-.81-.58-1.79-.84-2.48-.27-.72-.54-1.04-.99-1-.29.03-.75.21-1.04.53-1.35,1.47-1.43,2.67-1.64,3.67-.19.92-.25,2.36-.15,2.78.17.71.5,1.04.88,1.2Z"/>
          <path class="cls-17" d="m214.85,231.39c2.41,1.39,4.37,5.13,4.37,8.35s-1.96,4.7-4.37,3.3c-2.41-1.39-4.37-5.13-4.37-8.35s1.96-4.7,4.37-3.3Z"/>
          <path class="cls-15" d="m223.43,238.84c-.48-.26-1.16-.63-1.71-1.07-.27-.22-.25-.5-.47-1.23-.22-.73-.46-1.53-.69-2.05-.59-1.29-1.1-2.18-1.64-2.98-.27-.4-.29-.69-.25-.98.11-.76.35-1.46.61-2.06.16-.37.42-.52.9-.12.29.24,1.2,1.6,1.76,2.68.61,1.17,1.36,2.33,2.1,5.48.16.68.21,1.46.18,1.88-.04.64-.29.71-.79.44Z"/>
          <path class="cls-15" d="m217.11,228.87c-.13.18-.29.27-.61,0-.65-.52-1.32-.95-2.24-1.34-.37-.16-.88-.2-1.36-.24-.47-.04-.61.11-.84-.23-.46-.68-.94-1.61-1.28-2.26-.35-.68-.42-1.1-.1-1.44.21-.22.64-.47,1.06-.5,1.95-.15,2.87.56,3.73,1.03.8.44,1.89,1.31,2.13,1.66.41.6.44,1.07.32,1.47-.2.67-.47,1.35-.81,1.84Z"/>
          <path class="cls-15" d="m206.17,228.19c.21-1,.28-2.19,1.64-3.67.29-.32.75-.5,1.04-.53.45-.04.71.28.99,1,.26.68.63,1.67.84,2.48.1.4-.1.42-.37.82-.27.41-.57.85-.69,1.25-.3.99-.42,1.81-.45,2.67-.02.43-.18.5-.4.49-.58-.03-1.24-.25-1.86-.52-.38-.16-.7-.49-.88-1.2-.1-.43-.04-1.86.15-2.78Z"/>
          <path class="cls-15" d="m206.91,233.6c.62.24,1.29.57,1.91,1.02.23.17.42.39.52.87.2.95.47,1.93.98,3.25.2.53.61,1.26.98,1.93.37.67.59.86.55,1.2-.07.69-.29,1.44-.44,1.95-.16.54-.39.66-.88.24-.32-.28-.85-.87-1.22-1.46-1.73-2.74-2.04-4.09-2.44-5.34-.38-1.16-.71-2.75-.68-3.12.05-.62.34-.69.72-.55Z"/>
          <path class="cls-15" d="m213.36,243.62c.19-.16.36.12.86.49.5.37,1.04.78,1.41.93.92.38,1.57.51,2.17.53.3,0,.49.24.66.55.46.83.85,1.78,1.18,2.68.2.54.25,1.02-.09,1.3-.2.17-1.22.14-2-.09-.85-.25-1.72-.31-3.83-2.18-.46-.4-.96-1.05-1.22-1.47-.39-.64-.4-1.03-.14-1.45.25-.4.61-.97.98-1.3Z"/>
          <path class="cls-15" d="m219.91,244.79c.44-.39.84-.89,1.25-1.75.17-.35.28-.99.4-1.58.11-.59.04-.91.3-.91.51.01,1.19.21,1.65.36.49.15.77.45.92,1.17.1.48.18,1.27.12,1.86-.26,2.72-.87,3.3-1.33,4.02-.42.66-1.16,1.32-1.43,1.32-.45,0-.75-.38-.98-.92-.39-.88-.76-1.84-1.01-2.75-.09-.34-.12-.63.11-.82Z"/>
        </g>
      </g>
      <g>
        <g>
          <path class="cls-17" d="m247.84,201.46l-5.65-3.26h-.02s-15.44-8.93-15.44-8.93c0,0-.03.02-.04.02l-3.07-1.76c-3.76-2.17-7.16-2.09-9.63-.22l-19.02,11.1c.98-.44,3.31-.97,7.46.83.94.41,3.13,1.58,6.13,3.26,7.83,4.55,13.99,8.11,15.8,9.04.75.43,1.5.87,2.26,1.31,5.02,3.28,10.52,9.23,12.52,14.84,2.3,6.43,3.05,28.73,3.05,28.73l19.25-11.15v-17.81c0-10-6.1-21.66-13.6-25.99Z"/>
          <path class="cls-17" d="m194.97,198.41c-.39.17-.57.34-.57.34l.57-.34Z"/>
        </g>
        <path class="cls-24" d="m222.17,208.96l-17.8-10.28c-7.5-4.33-13.6.28-13.6,10.28v17.81l2.09,1.21v-17.81c0-8.46,5.16-12.37,11.51-8.7l17.8,10.28v-2.79Z"/>
        <path class="cls-24" d="m228.59,212.62l-21.23-12.26v2.82l7.62,4.4v-.03l13.61,7.86c6.35,3.66,11.51,13.53,11.51,21.99v17.81l2.09,1.21v-17.81c0-10-6.1-21.66-13.6-25.99Z"/>
      </g>
    </g>
    <path class="cls-23" d="m333.33,104.15c-2.68-7.35-7.54-14.54-14.63-18.64l-38.69-22.34v43.32l-51.32,29.34,31.03,90.52,82.43-47.06s.08-22.6.08-30.88c0-16.17-5.02-33.66-8.89-44.26Z"/>
    <path class="cls-12" d="m197.58,191.38l62.13,34.97s.08-22.6.08-30.88c0-16.17-5.02-33.66-8.89-44.26-2.68-7.35-7.54-14.54-14.63-18.64l-38.69-22.34v81.15Z"/>
    <path class="cls-3" d="m280.17,63.17l-82.59,47.06,44.18,26.34,82.17-47.31s-2.87-2.58-8.98-5.92c-8.27-4.51-34.77-20.17-34.77-20.17Z"/>
    <path class="cls-8" d="m266.88,217v-15.24c0-3.72.34-8.23,8.08-12.89,7.74-4.66,48.11-28.81,54.26-32.23,6.15-3.42,8.34-1.65,8.17,3.9-.18,5.54,0,16.31,0,16.31l-70.51,40.15Z"/>
    <path class="cls-4" d="m347.19,185.77v-1.28h-.02c-.06-2.07-.3-5.97-1.2-7.94-1.26-2.77-3.82-4.8-3.82-4.8l-82.37,47.51-13.5-7.26s-1.75-.38-4.46,2.09c-1.58,1.43-1.94,3.99-1.97,5.88,4.88,4.83,7.2,10.89,7.2,21.84,3.21,1.88,9.19,5.31,11.87,6.42,2.52,1.04,4.64,1.04,10.44-2.31,10.74-6.2,30.12-17.68,47.24-27.27,13.8-7.74,21.73-12.4,26.05-15.01,2.83-1.71,4.55-4.77,4.55-8.07v-9.8Z"/>
    <g>
      <path class="cls-12" d="m267.36,222.1s2.21,1.7,4.05,5.75c2.06,4.54,2.69,10.58,2.69,10.58v-13.43l-6.74-2.9Z"/>
      <polygon class="cls-23" points="285.6 218.3 274.11 225 274.11 238.43 285.6 231.73 285.6 218.3"/>
      <polygon class="cls-1" points="283.99 221.12 275.72 225.94 275.72 235.61 283.99 230.79 283.99 221.12"/>
      <polygon class="cls-3" points="285.6 218.3 278.86 215.4 267.36 222.1 274.11 225 285.6 218.3"/>
    </g>
    <g>
      <path class="cls-12" d="m324.9,188.87s2.21,1.7,4.05,5.75c2.06,4.54,2.69,10.58,2.69,10.58v-13.43l-6.74-2.9Z"/>
      <polygon class="cls-23" points="343.13 185.07 331.64 191.77 331.64 205.2 343.13 198.51 343.13 185.07"/>
      <polygon class="cls-1" points="341.52 187.89 333.25 192.71 333.25 202.38 341.52 197.56 341.52 187.89"/>
      <polygon class="cls-3" points="343.13 185.07 336.39 182.17 324.9 188.87 331.64 191.77 343.13 185.07"/>
    </g>
    <g>
      <path class="cls-28" d="m243.99,176.58c-5.88-22.05-12.75-28.02-22.17-33.55-6.49-3.81-13.09-7.42-17.99-10.14v27.61l41.59,23.99c-.04-.4-.08-.77-.13-1.05-.39-2.3-.69-4.62-1.29-6.87Z"/>
      <path class="cls-26" d="m247.53,163.14c-3.65-12.86-7.77-19.61-14.1-25.42-3.59-3.29-21.81-13.12-29.61-17.26v12.44c4.91,2.71,11.5,6.33,17.99,10.14,9.43,5.53,16.3,11.5,22.17,33.55.6,2.25.9,4.57,1.29,6.87.05.28.09.65.13,1.05l7.11,4.1s-.93-11.18-4.98-25.47Z"/>
    </g>
    <polygon class="cls-12" points="211.49 121.67 212.27 175.45 216 178.22 214.23 123.89 211.49 121.67"/>
    <g>
      <path class="cls-28" d="m291.77,163.13c11.81-7.91,24.15-15.04,36.93-21.28-1.13-7.93-2.52-15.75-4.66-23.51-.5-1.82-1-3.62-1.54-5.38-3.54,2.52-7.15,4.92-10.87,7.15-17.01,10.16-36.43,18.1-56.13,21.33,1.2,2.09,2.22,4.27,3.02,6.48,3.14,8.6,7.01,21.73,8.37,35.02,6.25-8.21,16.84-14.41,24.89-19.8Z"/>
      <path class="cls-26" d="m329.22,108.27c-1.48,1.03-2.96,1.99-4.15,2.87-.84.63-1.72,1.2-2.57,1.81.53,1.76,1.03,3.56,1.54,5.38,2.14,7.76,3.53,15.59,4.66,23.51-12.77,6.24-25.12,13.37-36.93,21.28-8.05,5.39-18.64,11.59-24.89,19.8.26,2.53.43,5.06.49,7.57l70.02-41.12c-.22-14.87-4.52-30.67-8.17-41.1Z"/>
      <path class="cls-28" d="m322.49,112.95c-1.65-5.45-3.67-10.56-7.3-15l-63.65,37.83c1.5,1.76,2.81,3.66,3.95,5.65,19.7-3.23,39.12-11.17,56.13-21.33,3.73-2.23,7.34-4.63,10.87-7.15Z"/>
      <path class="cls-2" d="m322.49,112.95c-1.65-5.45-3.67-10.56-7.3-15l-63.65,37.83c1.5,1.76,2.81,3.66,3.95,5.65,19.7-3.23,39.12-11.17,56.13-21.33,3.73-2.23,7.34-4.63,10.87-7.15Z"/>
      <path class="cls-26" d="m321.55,94.17l-6.36,3.78c3.64,4.44,5.65,9.55,7.3,15,.85-.61,1.73-1.18,2.57-1.81,1.19-.89,2.67-1.84,4.15-2.87-.24-.68-.47-1.34-.7-1.97-1.57-4.3-3.9-8.52-6.97-12.13Z"/>
      <path class="cls-2" d="m321.55,94.17l-6.36,3.78c3.64,4.44,5.65,9.55,7.3,15,.85-.61,1.73-1.18,2.57-1.81,1.19-.89,2.67-1.84,4.15-2.87-.24-.68-.47-1.34-.7-1.97-1.57-4.3-3.9-8.52-6.97-12.13Z"/>
    </g>
    <path class="cls-23" d="m200.65,162.79v7.9c2.63,1.31,19.38,9.77,29.67,15.21,6.13,3.24,7.69,5.8,7.69,12.15v14.2l2.71-1.83s.19-15.56-.28-21.11c-.3-3.59-3.02-5.82-7.28-8.34-2.33-1.38-32.5-18.19-32.5-18.19Z"/>
    <path class="cls-23" d="m331.52,173.27l-58.78,33.93c-.79.45-1.43-.03-1.43-1.08s.64-2.28,1.43-2.73l58.78-33.93c.79-.45,1.43.03,1.43,1.08s-.64,2.28-1.43,2.73Z"/>
    <path class="cls-23" d="m331.52,165.6l-58.78,33.93c-.79.45-1.43-.03-1.43-1.08s.64-2.28,1.43-2.73l58.78-33.93c.79-.45,1.43.03,1.43,1.08s-.64,2.28-1.43,2.73Z"/>
    <polygon class="cls-1" points="322.21 212.74 300.44 225.31 300.44 218.06 322.21 205.49 322.21 212.74"/>
    <g>
      <g>
        <path class="cls-22" d="m243,110.18c-1.09-.68-2.63-1.11-4.36-1.11s-3.27.43-4.36,1.11h-1.6v2.34c0,1.91,2.67,3.46,5.97,3.46s5.97-1.55,5.97-3.46v-2.34h-1.6Z"/>
        <path class="cls-15" d="m244.6,110.18c0,1.91-2.67,3.46-5.97,3.46s-5.97-1.55-5.97-3.46,2.67-3.46,5.97-3.46,5.97,1.55,5.97,3.46Z"/>
        <path class="cls-19" d="m242.21,102.83h-7.13l-.68,7.35c0,1.36,1.9,2.46,4.25,2.46s4.25-1.1,4.25-2.46l-.68-7.35Z"/>
        <path class="cls-27" d="m242.21,102.83c0,1.14-1.6,2.07-3.57,2.07s-3.57-.93-3.57-2.07,1.6-2.07,3.57-2.07,3.57.93,3.57,2.07Z"/>
      </g>
      <g>
        <path class="cls-22" d="m264.62,97.8c-1.09-.68-2.63-1.11-4.36-1.11s-3.27.43-4.36,1.11h-1.6v2.34c0,1.91,2.67,3.46,5.97,3.46s5.97-1.55,5.97-3.46v-2.34h-1.6Z"/>
        <path class="cls-15" d="m266.22,97.8c0,1.91-2.67,3.46-5.97,3.46s-5.97-1.55-5.97-3.46,2.67-3.46,5.97-3.46,5.97,1.55,5.97,3.46Z"/>
        <path class="cls-19" d="m263.82,90.45h-7.13l-.68,7.35c0,1.36,1.9,2.46,4.25,2.46s4.25-1.1,4.25-2.46l-.68-7.35Z"/>
        <path class="cls-27" d="m263.82,90.45c0,1.14-1.6,2.07-3.57,2.07s-3.57-.93-3.57-2.07,1.6-2.07,3.57-2.07,3.57.93,3.57,2.07Z"/>
      </g>
      <g>
        <path class="cls-22" d="m285.35,85.85c-1.09-.68-2.63-1.11-4.36-1.11s-3.27.43-4.36,1.11h-1.6v2.34c0,1.91,2.67,3.46,5.97,3.46s5.97-1.55,5.97-3.46v-2.34h-1.6Z"/>
        <path class="cls-15" d="m286.96,85.85c0,1.91-2.67,3.46-5.97,3.46s-5.97-1.55-5.97-3.46,2.67-3.46,5.97-3.46,5.97,1.55,5.97,3.46Z"/>
        <path class="cls-19" d="m284.56,78.51h-7.13l-.68,7.35c0,1.36,1.9,2.46,4.25,2.46s4.25-1.1,4.25-2.46l-.68-7.35Z"/>
        <path class="cls-27" d="m284.56,78.51c0,1.14-1.6,2.07-3.57,2.07s-3.57-.92-3.57-2.07,1.6-2.07,3.57-2.07,3.57.92,3.57,2.07Z"/>
      </g>
    </g>
  </g>
</svg>