<?xml version="1.0" encoding="UTF-8"?>
<svg id="OBJECTS" xmlns="http://www.w3.org/2000/svg" viewBox="0 0 739.18 374.96">
  <defs>
    <style>
      .cls-1 {
        stroke: #eca85e;
      }

      .cls-1, .cls-2, .cls-3 {
        fill: none;
        stroke-miterlimit: 10;
      }

      .cls-4 {
        fill: #fbeed1;
      }

      .cls-5 {
        fill: #fff;
      }

      .cls-6 {
        fill: #f4d071;
      }

      .cls-7 {
        fill: #f7dd8c;
      }

      .cls-8 {
        fill: #6a3649;
      }

      .cls-9 {
        fill: #5dabff;
      }

      .cls-10 {
        fill: #7dd3e9;
      }

      .cls-11 {
        fill: #495375;
      }

      .cls-12 {
        fill: #007ded;
      }

      .cls-13 {
        fill: #c9dff4;
      }

      .cls-14 {
        fill: #eca85e;
      }

      .cls-15 {
        fill: #ef9f6a;
      }

      .cls-16 {
        fill: #a34262;
      }

      .cls-17 {
        fill: #f2c9ad;
      }

      .cls-18 {
        fill: #df4268;
      }

      .cls-19 {
        fill: #99a3b0;
      }

      .cls-2 {
        stroke: #59595b;
        stroke-linecap: round;
        stroke-width: 4px;
      }

      .cls-3 {
        stroke: #2c2493;
        stroke-width: 1.51px;
      }

      .cls-20 {
        fill: #95cbee;
      }

      .cls-21 {
        fill: #c7d2d7;
      }

      .cls-22 {
        fill: #5fa5cc;
      }

      .cls-23 {
        fill: #e8916a;
      }

      .cls-24 {
        fill: #21255c;
      }

      .cls-25 {
        fill: #e36e90;
      }

      .cls-26 {
        fill: #3e4870;
      }
    </style>
  </defs>
  <g>
    <polygon class="cls-24" points="94.8 312.53 94.8 333.59 76.5 333.59 76.5 312.44 94.8 312.53"/>
    <polygon class="cls-24" points="286.57 312.53 286.57 333.59 235.07 333.59 235.07 312.44 286.57 312.53"/>
    <path class="cls-24" d="m249.18,261.5c-7.2,0-13.15,22.16-14.11,50.94h28.22c-.96-28.78-6.91-50.94-14.11-50.94Z"/>
    <g>
      <path class="cls-24" d="m293.36,270.21h-42.12v100.85h42.12c6.71,0,12.15-22.58,12.15-50.43s-5.44-50.43-12.15-50.43Z"/>
      <ellipse class="cls-11" cx="251.23" cy="320.63" rx="12.15" ry="50.43"/>
      <path class="cls-21" d="m254.04,292.58c-.87-1.49-1.81-2.32-2.81-2.32-4.04,0-7.32,13.6-7.32,30.38s3.28,30.38,7.32,30.38c1,0,1.94-.83,2.81-2.32-2.65-4.57-4.51-15.41-4.51-28.05s1.86-23.48,4.51-28.05Z"/>
      <path class="cls-19" d="m254.04,292.58c-2.65,4.57-4.51,15.41-4.51,28.05s1.86,23.48,4.51,28.05c2.65-4.57,4.51-15.41,4.51-28.05s-1.86-23.48-4.51-28.05Z"/>
    </g>
    <g>
      <path class="cls-24" d="m521.75,270.21h-42.12v100.85h42.12c6.71,0,12.15-22.58,12.15-50.43s-5.44-50.43-12.15-50.43Z"/>
      <path class="cls-11" d="m491.78,320.63c0,27.85-5.44,50.43-12.15,50.43s-12.15-22.58-12.15-50.43,5.44-50.43,12.15-50.43,12.15,22.58,12.15,50.43Z"/>
      <path class="cls-21" d="m482.44,292.58c-.87-1.49-1.81-2.32-2.81-2.32-4.04,0-7.32,13.6-7.32,30.38s3.28,30.38,7.32,30.38c1,0,1.94-.83,2.81-2.32-2.65-4.57-4.51-15.41-4.51-28.05s1.86-23.48,4.51-28.05Z"/>
      <path class="cls-19" d="m482.44,292.58c-2.65,4.57-4.51,15.41-4.51,28.05s1.86,23.48,4.51,28.05c2.65-4.57,4.51-15.41,4.51-28.05s-1.86-23.48-4.51-28.05Z"/>
    </g>
    <path class="cls-24" d="m90.61,261.5c-7.2,0-13.15,22.16-14.11,50.94h28.22c-.96-28.78-6.91-50.94-14.11-50.94Z"/>
    <rect class="cls-18" x="286.57" y=".75" width="290.08" height="311.68"/>
    <rect class="cls-24" x="287.92" y="23.71" width="287.38" height="265.78" transform="translate(588.2 -275.01) rotate(90)"/>
    <g>
      <path class="cls-24" d="m132.74,270.21h-42.12v100.85h42.12c6.71,0,12.15-22.58,12.15-50.43s-5.44-50.43-12.15-50.43Z"/>
      <ellipse class="cls-11" cx="90.61" cy="320.63" rx="12.15" ry="50.43"/>
      <path class="cls-21" d="m93.42,292.58c-.87-1.49-1.81-2.32-2.81-2.32-4.04,0-7.32,13.6-7.32,30.38s3.28,30.38,7.32,30.38c1,0,1.94-.83,2.81-2.32-2.65-4.57-4.51-15.41-4.51-28.05s1.86-23.48,4.51-28.05Z"/>
      <path class="cls-19" d="m93.42,292.58c-2.65,4.57-4.51,15.41-4.51,28.05s1.86,23.48,4.51,28.05c2.65-4.57,4.51-15.41,4.51-28.05s-1.86-23.48-4.51-28.05Z"/>
    </g>
    <path class="cls-20" d="m171.32.75v311.68h63.76c.96-28.78,6.91-50.94,14.11-50.94s13.15,22.16,14.11,50.94h23.27V.75h-115.25Z"/>
    <polyline class="cls-3" points="268.98 .75 171.32 .75 171.32 21.48"/>
    <path class="cls-18" d="m171.32,73.97h-51.88c-9.09,0-16.8,6.71-18.05,15.71l-13.2,94.86-16.55,17.09c-5.49,5.67-8.56,13.25-8.56,21.14v89.67h13.43c.96-28.78,6.91-50.94,14.11-50.94s13.15,22.16,14.11,50.94h66.59V73.97Z"/>
    <rect class="cls-21" x="286.57" y="312.44" width="299.72" height="21.06"/>
    <rect class="cls-19" x="263.38" y="312.44" width="23.18" height="21.16"/>
    <polygon class="cls-19" points="171.32 312.44 171.32 312.53 104.72 312.44 104.72 333.59 171.32 333.59 235.07 333.59 235.07 312.53 171.32 312.44"/>
    <polygon class="cls-19" points="76.5 312.53 76.5 333.59 58.21 333.59 58.21 312.44 76.5 312.53"/>
    <path class="cls-10" d="m149.34,87.34h-29.9c-2.41,0-4.48,1.8-4.81,4.19l-12.95,93.02h47.66v-97.21Z"/>
    <path class="cls-22" d="m147.52,173.2c-4.67-4.67-11-7.29-17.6-7.29h-17.64l8.85-70.78c.15-1.22,1.19-2.13,2.41-2.13h25.8v-5.67h-29.9c-2.41,0-4.48,1.8-4.81,4.19l-12.95,93.02h47.66v-11.34h-1.82Z"/>
    <path class="cls-16" d="m144.89,184.54v114.72c0,1.23,1,2.23,2.23,2.23s2.23-1,2.23-2.23v-114.72h-4.46Z"/>
    <g>
      <path class="cls-25" d="m70.23,263.32c-1.01,0-1.82-.82-1.82-1.82v-37.37c0-7.46,2.86-14.51,8.05-19.87.7-.72,1.86-.74,2.58-.04.72.7.74,1.85.04,2.58-4.53,4.67-7.02,10.83-7.02,17.33v37.37c0,1.01-.82,1.82-1.82,1.82Z"/>
      <path class="cls-25" d="m82.41,202.56c-.46,0-.91-.17-1.27-.51-.72-.7-.74-1.85-.04-2.58l3.52-3.64c.7-.72,1.85-.74,2.58-.04.72.7.74,1.85.04,2.58l-3.52,3.64c-.36.37-.83.55-1.31.55Z"/>
    </g>
    <g>
      <g>
        <g>
          <rect class="cls-6" x="417.47" y="202.56" width="97.73" height="97.73"/>
          <rect class="cls-4" x="457.63" y="202.56" width="17.42" height="30.59"/>
        </g>
        <rect class="cls-14" x="396.44" y="202.56" width="21.03" height="97.73"/>
        <rect class="cls-1" x="433.21" y="277.62" width="23.41" height="13.12" rx="2.22" ry="2.22"/>
      </g>
      <g>
        <g>
          <rect class="cls-6" x="394.79" y="120.13" width="82.43" height="82.43"/>
          <rect class="cls-4" x="428.66" y="120.13" width="14.69" height="25.8"/>
        </g>
        <rect class="cls-14" x="368.19" y="120.13" width="26.6" height="82.43"/>
        <rect class="cls-1" x="411.7" y="182.84" width="23.41" height="13.12" rx="2.22" ry="2.22"/>
      </g>
      <g>
        <g>
          <rect class="cls-6" x="298.72" y="104.83" width="69.47" height="97.73"/>
          <rect class="cls-4" x="310.62" y="104.83" width="17.42" height="30.59"/>
        </g>
        <polygon class="cls-14" points="368.19 202.56 298.72 202.56 298.72 185.35 368.19 202.56"/>
      </g>
      <g>
        <g>
          <rect class="cls-6" x="298.72" y="202.56" width="97.73" height="97.73"/>
          <rect class="cls-4" x="338.87" y="202.56" width="17.42" height="30.59"/>
        </g>
        <polygon class="cls-14" points="396.44 300.29 298.72 300.29 298.72 278.11 396.44 300.29"/>
      </g>
    </g>
    <path class="cls-23" d="m307.36,326.72h-20.81v-14.28h35.09c0,7.89-6.39,14.28-14.28,14.28Z"/>
    <path class="cls-23" d="m565.5,326.72h20.81v-14.28h-35.09c0,7.89,6.39,14.28,14.28,14.28Z"/>
    <path class="cls-16" d="m286.57,326.72h0c-7,0-12.68-5.68-12.68-12.68v-1.6h12.68v14.28Z"/>
    <g>
      <rect class="cls-5" x="167.77" y="81.87" width="97.81" height="8.2"/>
      <rect class="cls-21" x="167.77" y="90.07" width="97.81" height="8.2"/>
      <polygon class="cls-19" points="265.59 81.87 265.59 90.07 265.59 98.27 272.37 98.27 272.37 90.07 272.37 81.87 265.59 81.87"/>
    </g>
    <g>
      <rect class="cls-5" x="167.77" y="170.11" width="97.81" height="8.2"/>
      <rect class="cls-21" x="167.77" y="178.32" width="97.81" height="8.2"/>
      <polygon class="cls-19" points="265.59 170.11 265.59 178.32 265.59 186.52 272.37 186.52 272.37 178.32 272.37 170.11 265.59 170.11"/>
    </g>
    <g>
      <rect class="cls-6" x="298.72" y="12.38" width="266.32" height="46.15"/>
      <rect class="cls-4" x="298.72" y="18.26" width="266.32" height="5.43"/>
      <rect class="cls-4" x="298.72" y="29.29" width="266.32" height="5.43"/>
      <rect class="cls-4" x="298.72" y="40.32" width="266.32" height="5.43"/>
      <rect class="cls-4" x="298.72" y="51.35" width="266.32" height="5.43"/>
    </g>
    <g>
      <path class="cls-24" d="m88.91,162.1h9.95c.44,0,.79-.35.79-.79s-.35-.79-.79-.79h-9.16v-50.2h12.81c.44,0,.79-.35.79-.79s-.35-.79-.79-.79h-13.6c-.44,0-.79.35-.79.79v51.79c0,.44.35.79.79.79Z"/>
      <path class="cls-24" d="m84.08,115.82h9.66c2.24,0,4.07,1.82,4.07,4.07v31.07c0,2.24-1.82,4.07-4.07,4.07h-9.66c-2.24,0-4.07-1.82-4.07-4.07v-31.07c0-2.24,1.82-4.07,4.07-4.07Z" transform="translate(177.81 270.84) rotate(180)"/>
      <rect class="cls-10" x="81.86" y="118.12" width="14.08" height="34.6" rx="3.4" ry="3.4" transform="translate(177.81 270.84) rotate(180)"/>
    </g>
  </g>
  <g>
    <g>
      <path class="cls-5" d="m586.88,91.78l-9.79-.78-.04.59-.03.48-.04.91c-.02.6-.04,1.18-.05,1.76-.02,1.16-.01,2.31,0,3.45.04,2.28.15,4.54.32,6.8.17,2.26.42,4.51.73,6.76.31,2.25.69,4.5,1.14,6.73.45,2.24.97,4.47,1.57,6.7.61,2.22,1.29,4.44,2.07,6.64,1.54,4.4,3.47,8.72,5.82,12.89.59,1.04,1.2,2.07,1.85,3.09l.49.77.44.65.11.16.11.14.21.28c.29.39.55.7.83,1.04l.4.46c.13.15.27.3.4.43,1.04,1.11,2.03,2.02,3,2.86.97.83,1.91,1.59,2.85,2.31,1.87,1.43,3.73,2.71,5.59,3.93,1.86,1.22,3.7,2.38,5.56,3.49,1.86,1.11,3.72,2.19,5.58,3.24,1.87,1.05,3.74,2.06,5.61,3.06,1.88.99,3.77,1.96,5.66,2.91l2.85,1.42,1.44.69,1.48.7,7.7-14.57-2.54-1.56-2.58-1.59c-1.72-1.07-3.42-2.16-5.12-3.24-1.7-1.08-3.39-2.19-5.06-3.29-1.67-1.1-3.32-2.22-4.94-3.36-1.62-1.13-3.22-2.27-4.75-3.43-1.54-1.15-3.01-2.33-4.37-3.48-.68-.58-1.32-1.15-1.89-1.7-.57-.55-1.07-1.08-1.42-1.51-.05-.06-.08-.1-.12-.15l-.1-.14c-.04-.07-.11-.16-.12-.19l-.02-.03s0-.01,0-.01h0s0,0,0,0l-.32-.56c-.43-.75-.84-1.52-1.24-2.29-1.58-3.12-2.89-6.44-3.97-9.89-1.08-3.45-1.91-7.04-2.54-10.69-.62-3.66-1.05-7.38-1.28-11.12-.08-1.26-.14-2.52-.17-3.78-3.67-2.79-7.47-5.41-11.32-7.95Z"/>
      <path class="cls-13" d="m635.37,165.75c.44.48.42,1.22-.06,1.67-.48.44-1.22.42-1.67-.06s-.42-1.22.06-1.67c.48-.44,1.22-.42,1.67.06Z"/>
      <path class="cls-13" d="m627.43,173.33c-.15.16-.38.21-.59.12-.25-.12-.36-.42-.24-.67.04-.08,3.96-8.31,7.76-14.45.15-.24.46-.31.69-.16.24.15.31.46.16.69-3.77,6.09-7.67,14.27-7.71,14.35-.02.05-.05.09-.08.12Z"/>
      <path class="cls-13" d="m639,164.94c-.16.17-.42.22-.63.1l-5.38-3.13c-.24-.14-.32-.45-.18-.69.14-.24.45-.32.69-.18l5.38,3.13c.24.14.32.45.18.69-.02.03-.04.06-.06.09Z"/>
      <path class="cls-13" d="m608.48,139.56s-.1.09-.16.12c-3.73,1.78-6.81,4.43-6.84,4.45-.21.18-.53.16-.71-.05-.18-.21-.16-.53.05-.71.13-.11,3.21-2.76,7.06-4.6.25-.12.55-.01.67.24.09.19.05.41-.08.56Z"/>
      <path class="cls-13" d="m608.2,139.48c-.12.13-.3.19-.48.16-1.27-.27-4.5-.04-4.53-.04-.28.02-.52-.19-.54-.47-.02-.28.19-.52.47-.54.14,0,3.41-.24,4.82.06.27.06.45.33.39.6-.02.09-.06.17-.12.23Z"/>
    </g>
    <g>
      <path class="cls-5" d="m603.32,181.86c-4.13,3.85-9.96,7.02-17.13,9.06-5.49,1.57-11.57,2.46-17.79,2.43-8.17-.03-14.55-1.45-22.13-5.15-2.29-6.26-6.83-28.76-7.5-35.43-.14-1.33-.24-2.66-.33-3.99-.42-6.4-.33-12.85-.02-19.6.02-.37.03-.73.05-1.1.27-5.55.68-11.31,1.06-17.42.76-12.1,4.8-19.55,11.82-20.67,3.26-.52,5.84-1.44,7.74-2.34.23-.11.45-.22.67-.33,2.26-1.15,3.54-2.19,3.54-2.19l15,.51c1.35,1.96,3.69,2.69,5.51,3.56.2.09.41.19.61.28,5.55,2.4,12.03,1.92,13.36,8.62.84,4.2-2.38,12.86-2.04,30.39.03,1.29.07,2.62.14,4.01.06,1.29.14,2.63.25,4.02.09,1.29.21,2.62.35,3.98.12,1.2.25,2.43.41,3.68.16,1.29.33,2.61.53,3.97,1.04,7.29,3.51,24.31,5.91,33.69Z"/>
      <path class="cls-13" d="m575.4,98.96c-.52,0-1.05-.04-1.59-.11-7.56-1.04-13.59-8.98-13.84-9.31-.14-.19-.1-.45.08-.59.19-.14.45-.1.59.08.06.08,6.08,8,13.29,8.99,2.86.39,5.57-.36,8.02-2.24.18-.14.45-.11.59.08.14.19.11.45-.08.59-2.19,1.68-4.56,2.52-7.07,2.52Z"/>
      <path class="cls-9" d="m553.14,89.66c7.53,10.69,8.88,25.52,8.88,25.52,8.77-.42,26.2-.54,26.2-.54.79-11.49-2.71-24.97-2.71-24.97,1.57-.02,4.38,1.59,4.38,1.59,3.26,14.26,1.92,23.5,5.81,43.54,3.9,20.05,7.94,48.5,7.94,48.5l-57.33,6.3c-3.14-7.31-5.18-18.74-7.01-30.93,0,0,9.99-13.93,15.37-31.15,5.38-17.22-5.65-36.87-5.65-36.87,1.24-.72,2.53-1.28,4.11-.98Z"/>
      <path class="cls-12" d="m589.6,160.78c-8.64,0-15.71-4.32-20.37-8.26-5.84-4.95-9.25-10.39-9.28-10.44-.12-.2-.06-.46.14-.58.2-.12.46-.06.58.14.03.05,3.38,5.4,9.13,10.26,5.28,4.46,13.72,9.42,23.99,7.7.23-.04.45.12.49.35s-.12.45-.35.49c-1.48.25-2.92.36-4.32.36Z"/>
      <path class="cls-12" d="m548.92,182.84c-.19,0-.38-.11-.47-.29-4.6-9.18-7.16-26.06-7.19-26.23-.04-.29.16-.56.44-.6.29-.04.56.16.6.44.03.17,2.56,16.88,7.08,25.91.13.26.03.58-.24.71-.08.04-.16.06-.24.06Z"/>
      <path class="cls-12" d="m577.37,138.36c-3.65,0-6.65-1.13-8.93-3.36-4.6-4.5-4.62-11.82-4.62-12.13,0-.23.18-.41.41-.42l24.31-.64s0,0,.01,0c.2,0,.38.14.41.34.06.31,1.42,7.67-2.39,12.41-1.94,2.42-4.88,3.69-8.73,3.8-.16,0-.32,0-.48,0Zm-12.69-15.08c.08,1.59.61,7.46,4.35,11.12,2.21,2.16,5.16,3.2,8.79,3.11,3.59-.09,6.31-1.26,8.09-3.48,3.11-3.87,2.5-9.86,2.28-11.37l-23.52.62Z"/>
      <g>
        <path class="cls-8" d="m561.66,57.66s-5.62,10-4.63,13.54c.99,3.54,3.74,1.63,3.74,1.63,0,0-3.43,6.23.25,8.03,2.32,1.13,4.66-3.66,4.66-3.66,0,0,3.16-16.48-4.02-19.54Z"/>
        <path class="cls-8" d="m586.46,64.99s4.34,8.37,2.53,11.56c-1.81,3.19-4.02.69-4.02.69,0,0,1.83,6.87-2.18,7.73-2.52.54-3.64-4.67-3.64-4.67,0,0-.39-14.06,7.31-15.3Z"/>
        <path class="cls-17" d="m579.77,83.94l-.5,4.11c-.53.33-1.05.61-1.58.84-7.65,3.41-14.7-2.83-14.7-2.83l1.74-14.24,13.25,10.67,1.79,1.45Z"/>
        <path class="cls-8" d="m579.77,83.94l-.5,4.11c-.53.33-1.05.61-1.58.84-5.78-3.14-9.42-10.05-9.42-10.05l9.71,3.66,1.79,1.45Z"/>
        <g>
          <path class="cls-8" d="m584.71,50.61s9.81,2.14,4.96,12.09c0,0-5.52-9.4-4.96-12.09Z"/>
          <path class="cls-15" d="m587.12,66.37s2.67-2.47,3.65.45c.98,2.92-.71,8.37-4.15,7.02l.5-7.47Z"/>
          <path class="cls-17" d="m588.43,76.33s-1.02,8.49-9.85,7.39c-8.77-1.09-13.91-8.71-14.19-9.07,0,0,0,0,0,0l.12-1.8.63-9.32.34-4.98s-.03-9.05,8.64-9.64c6.33-.43,12.01,1.3,14.55,4.89.93,1.32,1.44,2.9,1.39,4.71l-.81,8.92-.2,2.19-.61,6.71Z"/>
          <path class="cls-8" d="m578.4,64.26c-.09.79-.53,1.4-.97,1.35-.44-.05-.73-.74-.64-1.53.09-.79.53-1.4.97-1.35s.73.74.64,1.53Z"/>
          <path class="cls-8" d="m586.38,65.18c-.09.79-.53,1.4-.97,1.35-.44-.05-.73-.74-.64-1.53.09-.79.53-1.4.97-1.35.44.05.73.74.64,1.53Z"/>
          <path class="cls-15" d="m577.58,67.12c-.08.62-1.41.96-2.98.77-1.57-.19-2.78-.85-2.71-1.47.08-.62,1.41-.96,2.98-.77,1.57.19,2.78.85,2.71,1.47Z"/>
          <path class="cls-15" d="m589.04,69.62c-.22,0-.45-.02-.69-.05-1.57-.19-2.78-.85-2.71-1.47.08-.62,1.41-.96,2.98-.77.21.03.42.06.61.1l-.2,2.19Z"/>
          <g>
            <path class="cls-8" d="m574.9,60.32c.8.47,2.55,1.06,4.6-.98.25-.25.29-.64.11-.94h0c-.23-.38-.74-.47-1.09-.21-.62.47-1.68,1.01-3.03.63-.42-.12-.85.16-.93.6l-.02.1c-.06.32.09.64.37.8Z"/>
            <path class="cls-8" d="m589.02,61.61c-.86.34-2.69.64-4.39-1.69-.21-.29-.19-.68.04-.94h0c.29-.33.81-.35,1.11-.03.54.56,1.5,1.26,2.89,1.1.44-.05.82.3.83.73v.1c.01.32-.18.61-.49.73Z"/>
            <path class="cls-8" d="m582.34,73.04c1.02.12,2.14-.03,3.31-.67.17-.09.23-.31.14-.48-.09-.17-.31-.23-.48-.14-4.18,2.27-7.72-2.47-7.75-2.52-.11-.16-.33-.19-.49-.08-.16.11-.19.33-.08.49.03.04,2.25,3.01,5.35,3.39Z"/>
          </g>
          <path class="cls-8" d="m567.57,71.55c-.05.09-1.49,2.54-3.18,3.11,0,0,0,0,0,0l.12-1.8s1.42-.07,3.07-1.3Z"/>
          <path class="cls-17" d="m566.74,65.47s-2.84-4.97-5.76-1.69c-2.41,2.7.53,10.87,4.9,8.73l.86-7.03Z"/>
          <path class="cls-8" d="m565.58,71.07s.03,0,.04,0c.19,0,.35-.15.36-.35.05-3.93-3.05-5.67-3.18-5.74-.17-.09-.38-.03-.48.14-.09.17-.03.38.14.48h0c.12.06,2.86,1.62,2.82,5.12,0,.18.13.33.31.35Z"/>
          <path class="cls-8" d="m562.58,68.56c.08,0,.16,0,.23-.05h0c.33-.21,1.33-.7,1.91-.47.18.07.39-.02.46-.2.07-.18-.02-.39-.2-.46-1.02-.4-2.39.44-2.54.53-.16.1-.21.32-.11.49.06.09.15.15.26.16Z"/>
          <path class="cls-8" d="m581.47,68.48c2.07.25,2.94-1.11,2.98-1.17.06-.09.07-.2.03-.3-1.06-3.1-2.13-6.28-2.14-6.31-.06-.18-.26-.28-.45-.22-.18.06-.28.26-.22.45.01.03,1.04,3.09,2.08,6.14-.24.27-.92.87-2.2.72-.19-.02-.37.11-.39.31-.02.19.11.37.31.39Z"/>
        </g>
        <path class="cls-8" d="m588.65,53.8c-.1.29-.26.53-.48.71-1.93,1.59-5.91.46-9.53-1.16-3.62-1.62-6.59.79-6.59.79.61,3.73-2.97,3.59-2.55,6.4.12.81.15,1.67.12,2.5,0,.28-.02.55-.04.81-.11,1.71-.39,3.08-.39,3.08l-2.17-.56c-.17-.71-.52-1.47-1.19-2.16-.2-.21-.43-.41-.69-.6-.49-.36-1.1-.68-1.85-.94-2.63.16-2.13-5.21-.29-9.29,0,0,2.42-3.87,11.09-4.47,6.33-.43,12.01,1.3,14.55,4.89Z"/>
        <path class="cls-9" d="m561.75,56.9l4.7-2.77.61-.36,1.33-.78c8.95-2.81,19.54-.94,19.54-.94,0,0-1.16-8.04-11.14-9.59-3.62-.56-6.66-.06-9.05,1.07-.41.19-.8.41-1.18.64-2.21,1.37-3.72,3.34-4.42,5.44-1.51,4.5-.38,7.29-.38,7.29Z"/>
        <path class="cls-12" d="m566.45,54.13l.61-.36c-1.44-1.95-1.71-4.34-.8-7.12.41-1.24.98-2.33,1.47-3.12-.41.19-.8.41-1.18.64-.34.66-.69,1.42-.96,2.26-.97,2.95-.67,5.58.86,7.7Z"/>
        <path class="cls-12" d="m581.13,44.92s-3.52-1.72-8.73.02l.48,2.85s4.9-1.06,8.25-.6v-2.27Z"/>
        <path class="cls-12" d="m590.99,57.12s12.37-5.15,7.19-10.7c-5.18-5.55-19.82-3.13-29.79,6.57,0,0,21.94-4.08,22.61,4.13Z"/>
      </g>
    </g>
    <path class="cls-13" d="m598.24,100.15c-.01.14-1.1,10.95-1.56,20.13-.06-.04-.12-.09-.18-.13-.26-.19-.53-.38-.79-.58.47-9.06,1.51-19.38,1.53-19.52.03-.28.27-.48.55-.45.28.03.48.28.45.55Z"/>
    <g>
      <g>
        <polygon class="cls-17" points="524.75 342.46 523.88 354.62 536.36 354.85 537.05 343.45 524.75 342.46"/>
        <path class="cls-9" d="m574.9,203.17l-.75,2.01-24.33,65.5c0,27.06-12.23,75.88-12.23,75.88l-14.66-.7,4.02-76.33.05-1.05c.02-.09.05-.19.07-.29,3.76-15.03,11.58-52.59,16.9-70.71.15-.51.29-1,.43-1.48.46-1.56.86-2.93,1.2-4.07.28-.95.51-1.74.69-2.35,0,0,0,0,0,0,.27-.9.41-1.39.41-1.39l4.11,2.18,1.18.63,5.4,2.87,17.48,9.29Z"/>
        <path class="cls-12" d="m534.74,268.6c-1.95.78-3.94,1.04-5.72,1.04-.72,0-1.41-.04-2.05-.11l.05-1.05c.02-.09.05-.19.07-.29.61.06,1.27.11,1.96.11,1.64,0,3.45-.23,5.2-.93.34-.14.73.03.86.37.14.34-.03.73-.37.86Z"/>
        <g>
          <g>
            <path class="cls-26" d="m539.19,368.7c0,.1,0,.19,0,.28,0,.43-.03.82-.05,1.15-.04.73-.1,1.18-.1,1.18h-24.23s-.12-.94-.03-2.33c.16-2.48.98-6.39,4.33-8.97,4.58-3.54,2.81-2.8,3.75-4.42.11-.18.93-2.92,1.02-3.11.79-1.68,1.51-2.47,5.85-2.47,5.76,0,6.26,2.79,6.88,4.26.25.61.6,1.89.96,3.42.14.61.29,1.27.43,1.93.35,1.67.69,3.41.91,4.8.24,1.49.29,3.02.27,4.26Z"/>
            <path class="cls-12" d="m539.19,368.7c0,.1,0,.19,0,.28,0,.43-.03.82-.05,1.15-1.18-.83-2.02-1.92-2.52-3.26-1.5-4.08.81-8.98.9-9.19l.05.02c.14.61.29,1.27.43,1.93-.55,1.67-1.17,4.47-.3,6.84.32.86.81,1.61,1.49,2.22Z"/>
            <path class="cls-12" d="m539.18,368.98c-.03,1.38-.14,2.33-.14,2.33h-24.23s-.12-.94-.03-2.33h24.4Z"/>
          </g>
          <path class="cls-12" d="m530.53,357.57c-.06,0-.12,0-.17-.02-3.08-.8-5.59-.12-5.62-.12-.37.1-.75-.11-.85-.48-.1-.37.11-.75.48-.85.12-.03,2.9-.78,6.33.11.37.1.59.47.5.84-.08.31-.36.52-.67.52Z"/>
          <path class="cls-12" d="m530.93,354.77c-.06,0-.12,0-.17-.02-3.08-.8-5.59-.12-5.62-.12-.37.1-.75-.11-.85-.48-.1-.37.11-.75.48-.85.12-.03,2.9-.78,6.33.11.37.1.59.47.5.84-.08.31-.36.52-.67.52Z"/>
          <path class="cls-12" d="m529.5,359.75c-.06,0-.12,0-.17-.02-3.06-.79-5.59-.12-5.62-.12-.37.1-.75-.12-.85-.48-.1-.37.11-.75.48-.85.12-.03,2.9-.78,6.33.11.37.1.59.47.5.84-.08.31-.36.52-.67.52Z"/>
          <path class="cls-12" d="m528.28,362.24c-.06,0-.12,0-.17-.02-3.06-.79-5.59-.12-5.62-.12-.37.1-.75-.12-.85-.48-.1-.37.11-.75.48-.85.12-.03,2.9-.78,6.33.11.37.1.59.47.5.84-.08.31-.36.52-.67.52Z"/>
        </g>
        <path class="cls-12" d="m536.07,346.29s-.09,0-.13-.01c-.36-.07-.59-.42-.52-.78.06-.32,6.43-31.94,8.17-41.67,1.74-9.68,2.47-35.1,2.48-35.35,0-.09.02-.17.06-.25,4.13-9.24,23.04-60.96,23.23-61.48.13-.34.51-.52.85-.4.34.13.52.51.39.85-.19.52-18.95,51.84-23.21,61.44-.06,2-.8,26-2.49,35.42-1.75,9.74-8.12,41.38-8.18,41.7-.06.31-.34.53-.65.53Z"/>
      </g>
      <polygon class="cls-17" points="576.25 342.46 576.47 354.64 587.86 354.85 587.93 343.4 576.25 342.46"/>
      <g>
        <path class="cls-26" d="m614.57,371.7l-40.67-.44c-.3-.55-.45-1.33-.51-2.26-.22-3.44.94-8.92,1.51-12.38.07-.4.13-.78.18-1.12.08-.58.13-1.06.14-1.41.03-2.83,2.53-2.31,2.53-2.31,4.07,4.08,8.8-1.92,11.5.09,0,0,1.16.85,4.36,3.79,3.2,2.94,8.67,4.92,13.32,6.92,6.01,2.59,7.69,5.13,8.01,6.86.25,1.38-.36,2.26-.36,2.26Z"/>
        <path class="cls-12" d="m614.57,371.7l-40.67-.44c-.3-.55-.45-1.33-.51-2.26l41.54.44c.25,1.38-.36,2.26-.36,2.26Z"/>
        <path class="cls-12" d="m578.05,371.31h-1.21c1.22-1.38,2.37-3.48,2.26-6.5-.15-4.02-2.54-6.76-4.2-8.18.07-.4.13-.78.18-1.12,1.79,1.4,4.8,4.45,4.99,9.27.11,2.89-.86,5.03-2.02,6.54Z"/>
        <path class="cls-12" d="m592.88,358.05c-.3,0-.57-.21-.64-.52-.09-.36.14-.72.5-.81l2.55-.6c.36-.09.72.14.81.5.09.36-.14.72-.5.81l-2.55.6c-.05.01-.11.02-.16.02Z"/>
        <path class="cls-12" d="m590.1,355.82c-.3,0-.57-.21-.64-.52-.09-.36.14-.72.5-.81l2.55-.6c.36-.09.72.14.81.5.09.36-.14.72-.5.81l-2.55.6c-.05.01-.11.02-.16.02Z"/>
        <path class="cls-12" d="m595.41,359.55c-.3,0-.57-.21-.64-.52-.09-.36.14-.72.5-.81l2.55-.6c.36-.09.72.14.81.5.09.36-.14.72-.5.81l-2.55.6c-.05.01-.11.02-.16.02Z"/>
        <path class="cls-12" d="m597.93,361c-.3,0-.57-.21-.64-.52-.09-.36.14-.72.5-.81l2.55-.6c.36-.09.72.14.81.5.09.36-.14.72-.5.81l-2.55.6c-.05.01-.11.02-.16.02Z"/>
        <path class="cls-12" d="m600.69,362.34c-.3,0-.57-.21-.64-.52-.09-.36.14-.72.5-.81l2.55-.6c.36-.09.72.14.81.5.09.36-.14.72-.5.81l-2.55.6c-.05.01-.11.02-.16.02Z"/>
        <path class="cls-12" d="m603.68,363.49c-.3,0-.57-.21-.64-.52-.09-.36.14-.72.5-.81l2.55-.6c.36-.09.72.14.81.5.09.36-.14.72-.5.81l-2.55.6c-.05.01-.11.02-.16.02Z"/>
      </g>
      <path class="cls-9" d="m605.37,194.39c0,.41,0,.82-.01,1.23,0,.97-.02,1.93-.03,2.89,0,.5-.01.99-.02,1.49,0,.07,0,.14,0,.2,0,.46,0,.91-.01,1.37-.36,29.78-1.4,57-3.55,76.53h0s-.24,1.35-.24,1.35l-11.99,67.55-15.44-1.3s.56-53.48,3.96-65.69l-.06-74.86v-10.78s20.8,2.19,20.8,2.19l1.3-.43.76-.25,1.27-.42,3.26-1.07Z"/>
      <path class="cls-12" d="m601.75,278.1h0s-.24,1.35-.24,1.35c-.24.01-.48.02-.72.02-5.02,0-9.24-2.46-9.47-2.6-.31-.19-.42-.59-.23-.91.19-.32.59-.42.91-.23.07.05,4.67,2.71,9.74,2.37Z"/>
      <path class="cls-12" d="m577.12,341.5s.05,0,.08,0c.36,0,.64-.29.64-.65-.36-45.09,5.29-62.96,5.35-63.14.02-.07.03-.14.03-.21l-1.13-71.52c0-.36-.3-.64-.66-.63-.36,0-.64.3-.63.66l1.13,71.42c-.47,1.56-5.73,19.91-5.38,63.44,0,.33.25.6.57.64Z"/>
      <path class="cls-9" d="m604.14,197.95c-4.66,3.11-15.28,5.65-26.04,6.85-1.32.15-2.64.27-3.95.38-12.48,1.01-24.16.09-25.81-3.95-.2-.5-.39-1.03-.56-1.58,0-.01,0-.03-.01-.05-.12-.4-.24-.82-.34-1.24-.19-.76-.35-1.55-.49-2.35-.08-.47-.15-.95-.21-1.42-.1-.75-.18-1.5-.24-2.25,0-.07-.01-.14-.02-.21-.07-.85-.12-1.7-.15-2.53-.1-2.48-.05-4.82.03-6.65.1-2.33.26-3.85.26-3.85l52.59-11.04s1.63,4.72,3.21,10.42c.51,1.86,1.02,3.82,1.46,5.75.62,2.73,1.13,5.41,1.34,7.68.04.48.08.95.09,1.4.09,2.31-.22,4.03-1.15,4.65Z"/>
      <path class="cls-12" d="m605.3,193.3c-.06-.01-.11-.03-.14-.04-.96-.33-1.87-.77-2.75-1.33-.23-.15-.46-.3-.68-.47-.84-.61-1.6-1.31-2.28-2.06-4.26-4.67-5.53-11.26-5.59-11.59-.07-.35.16-.69.51-.75.35-.07.69.17.75.51.02.08,1.31,6.82,5.56,11.26.62.66,1.32,1.26,2.08,1.79.11.08.22.15.34.23.67.43,1.37.78,2.1,1.06.05.48.08.95.09,1.4Z"/>
      <path class="cls-12" d="m555.04,184.17c-.06.23-.98,3.55-3.01,6.84-1.24,2.01-2.9,4.01-5.03,5.28-.25.15-.5.29-.76.41-.73.36-1.47.62-2.24.78.15-.51.29-1,.43-1.48.42-.13.83-.29,1.22-.49.39-.19.76-.41,1.12-.65,1.68-1.14,3.02-2.8,4.07-4.48,1.99-3.2,2.9-6.51,2.91-6.56.1-.35.46-.56.81-.47.35.1.56.46.47.81Z"/>
      <path class="cls-12" d="m583.34,202c.01.28-.21.53-.51.54t0,0c-.3.01-.55-.21-.56-.49-.09-1.94-.21-3.94-.33-5.93-.02-.35-.04-.7-.07-1.05-.42-6.5-.96-12.88-1.36-17.39-.03-.36-.06-.72-.1-1.06-.09-.99-.17-1.87-.24-2.61.36-.06.71-.11,1.07-.17.07.74.15,1.63.24,2.63.03.34.06.69.1,1.06.4,4.47.93,10.79,1.36,17.25.02.36.05.71.07,1.07.13,2.06.25,4.13.35,6.14Z"/>
      <path class="cls-12" d="m584.87,195.14c-.17.08-.92.43-1.88.72-.33.1-.69.19-1.06.27-.34.06-.68.11-1.02.13-.65.04-1.28-.03-1.8-.28-.65-.31-1.08-.88-1.22-1.64-.39-2-1.21-10.28-1.76-16.14-.04-.36-.07-.71-.1-1.05-.09-.94-.17-1.79-.23-2.51.36-.04.71-.09,1.07-.13.07.73.15,1.59.24,2.54.03.34.06.69.1,1.05.55,5.84,1.37,14.11,1.75,16.05.09.45.29.74.65.91.57.27,1.42.21,2.27.03.36-.08.72-.18,1.06-.29.62-.2,1.15-.42,1.48-.58.27-.13.59-.02.72.23.13.26.02.57-.24.7Z"/>
    </g>
    <g>
      <g>
        <path class="cls-24" d="m555.88,206.59c.63,2.89-1.21,5.73-4.09,6.36-2.89.63-5.74-1.21-6.36-4.09-.63-2.89,1.21-5.74,4.1-6.36,2.89-.63,5.73,1.21,6.36,4.1Z"/>
        <rect class="cls-24" x="599.24" y="198.03" width="9.4" height="159.18" transform="translate(-45.09 134.17) rotate(-12.22)"/>
        <rect class="cls-24" x="616.24" y="334.15" width="96.29" height="11.67" transform="translate(-56.92 148.39) rotate(-12.22)"/>
        <g>
          <g>
            <path class="cls-11" d="m652.59,357.47c1.63,7.52-3.15,14.94-10.67,16.57-7.52,1.63-14.95-3.15-16.58-10.67-1.63-7.52,3.15-14.94,10.67-16.57,7.52-1.63,14.94,3.15,16.57,10.67Z"/>
            <path class="cls-6" d="m645.14,359.08c.74,3.41-1.43,6.78-4.84,7.52-3.41.74-6.78-1.43-7.52-4.84-.74-3.41,1.43-6.77,4.84-7.51,3.41-.74,6.78,1.42,7.51,4.84Z"/>
          </g>
          <g>
            <path class="cls-11" d="m712.63,344.46c1.63,7.52-3.15,14.94-10.67,16.57-7.53,1.63-14.95-3.15-16.58-10.67-1.63-7.52,3.15-14.94,10.67-16.57,7.52-1.63,14.95,3.15,16.58,10.67Z"/>
            <path class="cls-6" d="m705.18,346.07c.74,3.41-1.43,6.78-4.84,7.52-3.41.74-6.78-1.43-7.52-4.84-.74-3.41,1.43-6.77,4.84-7.51,3.41-.74,6.78,1.42,7.51,4.84Z"/>
          </g>
        </g>
        <rect class="cls-24" x="550.17" y="197.93" width="41.98" height="10.7" transform="translate(-30.09 125.55) rotate(-12.22)"/>
        <path class="cls-24" d="m717.14,328.55c.68,3.15-1.32,6.26-4.47,6.94-3.15.68-6.26-1.32-6.94-4.47-.68-3.15,1.32-6.26,4.47-6.94,3.15-.68,6.26,1.32,6.94,4.47Z"/>
      </g>
      <g>
        <g>
          <rect class="cls-6" x="638.92" y="248.83" width="67.46" height="82.43" transform="translate(-46.16 149) rotate(-12.22)"/>
          <rect class="cls-4" x="662.05" y="248.88" width="14.69" height="25.8" transform="translate(-40.25 147.67) rotate(-12.22)"/>
        </g>
        <rect class="cls-14" x="613.39" y="258.79" width="26.6" height="82.43" transform="translate(-49.31 139.5) rotate(-12.22)"/>
      </g>
      <g>
        <g>
          <rect class="cls-6" x="640.74" y="198.17" width="51.53" height="51.84" transform="translate(-32.34 146.21) rotate(-12.22)"/>
          <rect class="cls-4" x="658.68" y="197.97" width="14.69" height="25.8" transform="translate(-29.55 145.81) rotate(-12.22)"/>
        </g>
        <rect class="cls-14" x="599.28" y="208.13" width="42.53" height="51.84" transform="translate(-35.49 136.7) rotate(-12.22)"/>
      </g>
      <g>
        <g>
          <rect class="cls-6" x="594.2" y="166.58" width="41.8" height="42.05" transform="translate(1255.97 240.72) rotate(167.78)"/>
          <rect class="cls-4" x="605.06" y="167.22" width="11.92" height="20.93" transform="translate(1245.8 221.97) rotate(167.78)"/>
        </g>
        <rect class="cls-14" x="635.13" y="158.51" width="34.49" height="42.05" transform="translate(-23.22 142.2) rotate(-12.22)"/>
      </g>
    </g>
    <g>
      <g>
        <path class="cls-17" d="m562.01,189.96s5.83,2.3,8.08,4.89c2.25,2.6.21,4.85.21,4.85,0,0,3.77,5.21,3.1,7.17-.67,1.95-2.67,1.43-2.67,1.43,0,0,.19,1.48-.63,2.11-.83.63-2.76-.15-2.76-.15,0,0-.22,2.01-1.24,2.49-1.03.49-2.48-.38-2.48-.38,0,0-1.28,2.55-2.96,1.82-3.85-1.69-10.61-15.46-10.61-15.46,0,0,6.39-6.58,11.96-8.77Z"/>
        <path class="cls-15" d="m570.2,199.69c-.14.04-.3.01-.41-.1-1.91-1.87-4.06-4.16-4.08-4.18-.15-.16-.14-.42.02-.57.16-.15.42-.14.57.02.02.02,2.16,2.3,4.05,4.16.16.16.16.41,0,.57-.05.05-.1.08-.16.1Z"/>
      </g>
      <path class="cls-5" d="m551.88,102.65l-8.09-5.56-.33.49-.26.4-.49.77c-.32.51-.62,1-.92,1.5-.6,1-1.16,1.99-1.72,2.99-1.1,2-2.14,4.01-3.12,6.06-.98,2.04-1.89,4.12-2.75,6.22-.86,2.1-1.65,4.24-2.38,6.4-.73,2.17-1.39,4.36-1.98,6.59-.58,2.23-1.1,4.49-1.52,6.78-.86,4.58-1.35,9.29-1.4,14.08,0,1.2,0,2.4.06,3.6l.04.91.06.78.02.19.02.18.04.35c.06.48.13.89.2,1.32l.12.59c.04.2.08.4.13.57.35,1.49.75,2.76,1.17,3.97.42,1.2.86,2.33,1.32,3.42.91,2.18,1.88,4.21,2.88,6.2,1,1.98,2.02,3.91,3.07,5.8,1.05,1.89,2.13,3.75,3.22,5.59,1.09,1.84,2.21,3.65,3.33,5.45,1.13,1.8,2.29,3.58,3.45,5.35l1.76,2.65.9,1.32.93,1.35,13.95-8.78-1.42-2.62-1.44-2.67c-.96-1.78-1.89-3.58-2.82-5.37-.93-1.79-1.84-3.59-2.73-5.38-.9-1.79-1.77-3.59-2.61-5.38-.84-1.79-1.65-3.57-2.41-5.34-.76-1.77-1.45-3.52-2.05-5.2-.3-.84-.56-1.66-.78-2.42-.22-.76-.39-1.47-.47-2.01-.01-.07-.02-.13-.03-.19l-.02-.17c0-.08-.02-.19,0-.22v-.04s0-.01,0-.02h0s0,0,0,0v-.64c0-.86.03-1.74.07-2.61.19-3.49.72-7.02,1.5-10.55.79-3.53,1.86-7.05,3.14-10.53,1.29-3.48,2.78-6.92,4.45-10.27.56-1.13-1.3-2.12-.7-3.23-1.78-4.25-1.33-8.55-3.4-12.67Z"/>
      <path class="cls-13" d="m556.94,190.96c.15.64-.25,1.27-.88,1.42-.64.15-1.27-.25-1.42-.88-.15-.64.25-1.27.88-1.42.64-.15,1.27.25,1.42.88Z"/>
      <path class="cls-13" d="m546.28,193.55c-.21.07-.44,0-.57-.19-.16-.23-.1-.54.13-.7.08-.05,7.58-5.22,13.94-8.64.25-.13.55-.04.68.21.13.25.04.55-.21.68-6.31,3.39-13.77,8.53-13.85,8.59-.04.03-.09.05-.13.07Z"/>
      <path class="cls-13" d="m560.49,192.07c-.22.07-.47-.02-.59-.23l-3.1-5.39c-.14-.24-.06-.55.19-.69.24-.14.55-.06.69.19l3.1,5.39c.14.24.06.55-.19.69-.03.02-.06.03-.1.04Z"/>
      <path class="cls-13" d="m546.73,154.84c-.06.02-.13.03-.19.02-4.12-.32-8.11.43-8.15.44-.27.05-.54-.13-.59-.4-.05-.27.13-.54.4-.59.17-.03,4.16-.78,8.42-.46.28.02.49.26.46.54-.02.21-.16.38-.35.44Z"/>
      <path class="cls-13" d="m546.52,154.62c-.17.05-.35.02-.49-.1-.96-.87-3.88-2.28-3.91-2.3-.25-.12-.36-.42-.23-.67.12-.25.42-.36.67-.23.12.06,3.07,1.49,4.14,2.46.21.19.22.51.04.71-.06.07-.14.12-.22.14Z"/>
    </g>
  </g>
  <line class="cls-2" x1="58.7" y1="372.96" x2="737.18" y2="372.96"/>
  <rect class="cls-7" y="323.01" width=".59" height=".59"/>
</svg>